<?xml version="1.0" encoding="UTF-8"?>
<svg xmlns="http://www.w3.org/2000/svg" xmlns:xlink="http://www.w3.org/1999/xlink" width="3750" height="2501.25" viewBox="0 0 3750 2501.25">
<defs>
<clipPath id="clip-0">

</clipPath>
<clipPath id="clip-1">
<path clip-rule="nonzero" d="M 956.984375 215.53125 C 1165.699219 168.640625 1374.78125 300.761719 1423.96875 510.640625 C 1473.160156 720.511719 1343.851562 928.660156 1135.128906 975.550781 C 1034.898438 998.070312 929.394531 979.628906 841.8125 924.28125 C 754.238281 868.941406 691.765625 781.230469 668.140625 680.441406 C 644.515625 579.660156 661.675781 474.058594 715.84375 386.871094 C 770.011719 299.679688 856.753906 238.050781 956.984375 215.53125 "/>
</clipPath>
<linearGradient id="linear-pattern-0" gradientUnits="userSpaceOnUse" x1="-0.290569" y1="0" x2="1.076359" y2="0" gradientTransform="matrix(65.7607, 660.585, 660.585, -65.7607, 1273.63, 299.86)">
<stop offset="0" stop-color="rgb(82.743835%, 37.254333%, 37.254333%)" stop-opacity="1"/>
<stop offset="0.125" stop-color="rgb(82.743835%, 37.254333%, 37.254333%)" stop-opacity="1"/>
<stop offset="0.1875" stop-color="rgb(82.743835%, 37.254333%, 37.254333%)" stop-opacity="1"/>
<stop offset="0.21875" stop-color="rgb(82.762146%, 37.319946%, 37.319946%)" stop-opacity="1"/>
<stop offset="0.234375" stop-color="rgb(82.826233%, 37.553406%, 37.553406%)" stop-opacity="1"/>
<stop offset="0.25" stop-color="rgb(82.919312%, 37.889099%, 37.889099%)" stop-opacity="1"/>
<stop offset="0.265625" stop-color="rgb(83.010864%, 38.223267%, 38.223267%)" stop-opacity="1"/>
<stop offset="0.28125" stop-color="rgb(83.102417%, 38.55896%, 38.55896%)" stop-opacity="1"/>
<stop offset="0.296875" stop-color="rgb(83.195496%, 38.894653%, 38.894653%)" stop-opacity="1"/>
<stop offset="0.3125" stop-color="rgb(83.287048%, 39.228821%, 39.228821%)" stop-opacity="1"/>
<stop offset="0.328125" stop-color="rgb(83.378601%, 39.564514%, 39.564514%)" stop-opacity="1"/>
<stop offset="0.34375" stop-color="rgb(83.47168%, 39.898682%, 39.898682%)" stop-opacity="1"/>
<stop offset="0.359375" stop-color="rgb(83.563232%, 40.234375%, 40.234375%)" stop-opacity="1"/>
<stop offset="0.375" stop-color="rgb(83.656311%, 40.568542%, 40.568542%)" stop-opacity="1"/>
<stop offset="0.390625" stop-color="rgb(83.747864%, 40.904236%, 40.904236%)" stop-opacity="1"/>
<stop offset="0.40625" stop-color="rgb(83.839417%, 41.239929%, 41.239929%)" stop-opacity="1"/>
<stop offset="0.421875" stop-color="rgb(83.932495%, 41.574097%, 41.574097%)" stop-opacity="1"/>
<stop offset="0.4375" stop-color="rgb(84.024048%, 41.90979%, 41.90979%)" stop-opacity="1"/>
<stop offset="0.453125" stop-color="rgb(84.117126%, 42.243958%, 42.243958%)" stop-opacity="1"/>
<stop offset="0.46875" stop-color="rgb(84.208679%, 42.579651%, 42.579651%)" stop-opacity="1"/>
<stop offset="0.484375" stop-color="rgb(84.300232%, 42.913818%, 42.913818%)" stop-opacity="1"/>
<stop offset="0.5" stop-color="rgb(84.393311%, 43.249512%, 43.249512%)" stop-opacity="1"/>
<stop offset="0.515625" stop-color="rgb(84.484863%, 43.583679%, 43.583679%)" stop-opacity="1"/>
<stop offset="0.53125" stop-color="rgb(84.576416%, 43.919373%, 43.919373%)" stop-opacity="1"/>
<stop offset="0.546875" stop-color="rgb(84.669495%, 44.255066%, 44.255066%)" stop-opacity="1"/>
<stop offset="0.5625" stop-color="rgb(84.761047%, 44.589233%, 44.589233%)" stop-opacity="1"/>
<stop offset="0.578125" stop-color="rgb(84.854126%, 44.924927%, 44.924927%)" stop-opacity="1"/>
<stop offset="0.59375" stop-color="rgb(84.945679%, 45.259094%, 45.259094%)" stop-opacity="1"/>
<stop offset="0.609375" stop-color="rgb(85.037231%, 45.594788%, 45.594788%)" stop-opacity="1"/>
<stop offset="0.625" stop-color="rgb(85.13031%, 45.928955%, 45.928955%)" stop-opacity="1"/>
<stop offset="0.640625" stop-color="rgb(85.221863%, 46.264648%, 46.264648%)" stop-opacity="1"/>
<stop offset="0.65625" stop-color="rgb(85.313416%, 46.600342%, 46.600342%)" stop-opacity="1"/>
<stop offset="0.671875" stop-color="rgb(85.406494%, 46.934509%, 46.934509%)" stop-opacity="1"/>
<stop offset="0.6875" stop-color="rgb(85.498047%, 47.270203%, 47.270203%)" stop-opacity="1"/>
<stop offset="0.703125" stop-color="rgb(85.591125%, 47.60437%, 47.60437%)" stop-opacity="1"/>
<stop offset="0.71875" stop-color="rgb(85.682678%, 47.940063%, 47.940063%)" stop-opacity="1"/>
<stop offset="0.734375" stop-color="rgb(85.774231%, 48.274231%, 48.274231%)" stop-opacity="1"/>
<stop offset="0.75" stop-color="rgb(85.86731%, 48.609924%, 48.609924%)" stop-opacity="1"/>
<stop offset="0.765625" stop-color="rgb(85.958862%, 48.945618%, 48.945618%)" stop-opacity="1"/>
<stop offset="0.78125" stop-color="rgb(86.051941%, 49.279785%, 49.279785%)" stop-opacity="1"/>
<stop offset="0.796875" stop-color="rgb(86.143494%, 49.615479%, 49.615479%)" stop-opacity="1"/>
<stop offset="0.8125" stop-color="rgb(86.235046%, 49.949646%, 49.949646%)" stop-opacity="1"/>
<stop offset="0.828125" stop-color="rgb(86.328125%, 50.285339%, 50.285339%)" stop-opacity="1"/>
<stop offset="0.84375" stop-color="rgb(86.419678%, 50.619507%, 50.619507%)" stop-opacity="1"/>
<stop offset="0.859375" stop-color="rgb(86.51123%, 50.9552%, 50.9552%)" stop-opacity="1"/>
<stop offset="0.875" stop-color="rgb(86.604309%, 51.289368%, 51.289368%)" stop-opacity="1"/>
<stop offset="0.890625" stop-color="rgb(86.695862%, 51.625061%, 51.625061%)" stop-opacity="1"/>
<stop offset="0.90625" stop-color="rgb(86.78894%, 51.960754%, 51.960754%)" stop-opacity="1"/>
<stop offset="0.921875" stop-color="rgb(86.880493%, 52.294922%, 52.294922%)" stop-opacity="1"/>
<stop offset="0.9375" stop-color="rgb(86.972046%, 52.630615%, 52.630615%)" stop-opacity="1"/>
<stop offset="1" stop-color="rgb(87.037659%, 52.868652%, 52.868652%)" stop-opacity="1"/>
</linearGradient>
<clipPath id="clip-2">
<path clip-rule="nonzero" d="M 654 218 L 1377 218 L 1377 988 L 654 988 Z M 654 218 "/>
</clipPath>
<clipPath id="clip-3">
<path clip-rule="nonzero" d="M 932.132812 227.03125 C 1025.25 205.210938 1123.320312 223.910156 1204.761719 279 C 1286.199219 334.101562 1344.339844 421.078125 1366.398438 520.808594 C 1388.449219 620.539062 1372.621094 724.851562 1322.371094 810.800781 C 1272.121094 896.75 1191.578125 957.289062 1098.460938 979.109375 C 1005.339844 1000.921875 907.273438 982.230469 825.835938 927.128906 C 744.394531 872.039062 686.25 785.058594 664.195312 685.320312 C 618.265625 477.640625 738.226562 272.460938 932.132812 227.03125 "/>
</clipPath>
<linearGradient id="linear-pattern-1" gradientUnits="userSpaceOnUse" x1="0.0901656" y1="0" x2="0.747327" y2="0" gradientTransform="matrix(73.2614, -1274.01, -1274.01, -73.2614, 1066.2, 1141.93)">
<stop offset="0" stop-color="rgb(90.594482%, 65.797424%, 65.797424%)" stop-opacity="1"/>
<stop offset="0.015625" stop-color="rgb(90.550232%, 65.635681%, 65.635681%)" stop-opacity="1"/>
<stop offset="0.03125" stop-color="rgb(90.460205%, 65.313721%, 65.313721%)" stop-opacity="1"/>
<stop offset="0.046875" stop-color="rgb(90.371704%, 64.99176%, 64.99176%)" stop-opacity="1"/>
<stop offset="0.0625" stop-color="rgb(90.283203%, 64.6698%, 64.6698%)" stop-opacity="1"/>
<stop offset="0.078125" stop-color="rgb(90.194702%, 64.347839%, 64.347839%)" stop-opacity="1"/>
<stop offset="0.09375" stop-color="rgb(90.106201%, 64.025879%, 64.025879%)" stop-opacity="1"/>
<stop offset="0.109375" stop-color="rgb(90.0177%, 63.703918%, 63.703918%)" stop-opacity="1"/>
<stop offset="0.125" stop-color="rgb(89.929199%, 63.381958%, 63.381958%)" stop-opacity="1"/>
<stop offset="0.140625" stop-color="rgb(89.840698%, 63.058472%, 63.058472%)" stop-opacity="1"/>
<stop offset="0.15625" stop-color="rgb(89.752197%, 62.736511%, 62.736511%)" stop-opacity="1"/>
<stop offset="0.171875" stop-color="rgb(89.663696%, 62.414551%, 62.414551%)" stop-opacity="1"/>
<stop offset="0.1875" stop-color="rgb(89.575195%, 62.09259%, 62.09259%)" stop-opacity="1"/>
<stop offset="0.203125" stop-color="rgb(89.486694%, 61.77063%, 61.77063%)" stop-opacity="1"/>
<stop offset="0.21875" stop-color="rgb(89.398193%, 61.448669%, 61.448669%)" stop-opacity="1"/>
<stop offset="0.234375" stop-color="rgb(89.309692%, 61.126709%, 61.126709%)" stop-opacity="1"/>
<stop offset="0.25" stop-color="rgb(89.221191%, 60.804749%, 60.804749%)" stop-opacity="1"/>
<stop offset="0.265625" stop-color="rgb(89.13269%, 60.482788%, 60.482788%)" stop-opacity="1"/>
<stop offset="0.28125" stop-color="rgb(89.044189%, 60.159302%, 60.159302%)" stop-opacity="1"/>
<stop offset="0.296875" stop-color="rgb(88.955688%, 59.837341%, 59.837341%)" stop-opacity="1"/>
<stop offset="0.3125" stop-color="rgb(88.865662%, 59.515381%, 59.515381%)" stop-opacity="1"/>
<stop offset="0.328125" stop-color="rgb(88.777161%, 59.19342%, 59.19342%)" stop-opacity="1"/>
<stop offset="0.34375" stop-color="rgb(88.68866%, 58.87146%, 58.87146%)" stop-opacity="1"/>
<stop offset="0.359375" stop-color="rgb(88.600159%, 58.5495%, 58.5495%)" stop-opacity="1"/>
<stop offset="0.375" stop-color="rgb(88.511658%, 58.227539%, 58.227539%)" stop-opacity="1"/>
<stop offset="0.390625" stop-color="rgb(88.423157%, 57.905579%, 57.905579%)" stop-opacity="1"/>
<stop offset="0.40625" stop-color="rgb(88.334656%, 57.582092%, 57.582092%)" stop-opacity="1"/>
<stop offset="0.421875" stop-color="rgb(88.246155%, 57.260132%, 57.260132%)" stop-opacity="1"/>
<stop offset="0.4375" stop-color="rgb(88.157654%, 56.938171%, 56.938171%)" stop-opacity="1"/>
<stop offset="0.453125" stop-color="rgb(88.069153%, 56.616211%, 56.616211%)" stop-opacity="1"/>
<stop offset="0.46875" stop-color="rgb(87.980652%, 56.29425%, 56.29425%)" stop-opacity="1"/>
<stop offset="0.484375" stop-color="rgb(87.892151%, 55.97229%, 55.97229%)" stop-opacity="1"/>
<stop offset="0.5" stop-color="rgb(87.80365%, 55.65033%, 55.65033%)" stop-opacity="1"/>
<stop offset="0.515625" stop-color="rgb(87.715149%, 55.328369%, 55.328369%)" stop-opacity="1"/>
<stop offset="0.53125" stop-color="rgb(87.626648%, 55.006409%, 55.006409%)" stop-opacity="1"/>
<stop offset="0.546875" stop-color="rgb(87.538147%, 54.682922%, 54.682922%)" stop-opacity="1"/>
<stop offset="0.5625" stop-color="rgb(87.449646%, 54.360962%, 54.360962%)" stop-opacity="1"/>
<stop offset="0.578125" stop-color="rgb(87.359619%, 54.039001%, 54.039001%)" stop-opacity="1"/>
<stop offset="0.59375" stop-color="rgb(87.271118%, 53.717041%, 53.717041%)" stop-opacity="1"/>
<stop offset="0.609375" stop-color="rgb(87.182617%, 53.395081%, 53.395081%)" stop-opacity="1"/>
<stop offset="0.625" stop-color="rgb(87.094116%, 53.07312%, 53.07312%)" stop-opacity="1"/>
<stop offset="0.640625" stop-color="rgb(87.005615%, 52.75116%, 52.75116%)" stop-opacity="1"/>
<stop offset="0.65625" stop-color="rgb(86.917114%, 52.429199%, 52.429199%)" stop-opacity="1"/>
<stop offset="0.671875" stop-color="rgb(86.828613%, 52.105713%, 52.105713%)" stop-opacity="1"/>
<stop offset="0.6875" stop-color="rgb(86.740112%, 51.783752%, 51.783752%)" stop-opacity="1"/>
<stop offset="0.703125" stop-color="rgb(86.651611%, 51.461792%, 51.461792%)" stop-opacity="1"/>
<stop offset="0.71875" stop-color="rgb(86.56311%, 51.139832%, 51.139832%)" stop-opacity="1"/>
<stop offset="0.734375" stop-color="rgb(86.474609%, 50.817871%, 50.817871%)" stop-opacity="1"/>
<stop offset="0.75" stop-color="rgb(86.386108%, 50.495911%, 50.495911%)" stop-opacity="1"/>
<stop offset="0.765625" stop-color="rgb(86.297607%, 50.17395%, 50.17395%)" stop-opacity="1"/>
<stop offset="0.78125" stop-color="rgb(86.209106%, 49.85199%, 49.85199%)" stop-opacity="1"/>
<stop offset="0.796875" stop-color="rgb(86.120605%, 49.530029%, 49.530029%)" stop-opacity="1"/>
<stop offset="0.8125" stop-color="rgb(86.032104%, 49.206543%, 49.206543%)" stop-opacity="1"/>
<stop offset="0.828125" stop-color="rgb(85.943604%, 48.884583%, 48.884583%)" stop-opacity="1"/>
<stop offset="0.84375" stop-color="rgb(85.855103%, 48.562622%, 48.562622%)" stop-opacity="1"/>
<stop offset="0.859375" stop-color="rgb(85.765076%, 48.240662%, 48.240662%)" stop-opacity="1"/>
<stop offset="0.875" stop-color="rgb(85.676575%, 47.918701%, 47.918701%)" stop-opacity="1"/>
<stop offset="0.890625" stop-color="rgb(85.588074%, 47.596741%, 47.596741%)" stop-opacity="1"/>
<stop offset="0.90625" stop-color="rgb(85.499573%, 47.27478%, 47.27478%)" stop-opacity="1"/>
<stop offset="0.921875" stop-color="rgb(85.411072%, 46.95282%, 46.95282%)" stop-opacity="1"/>
<stop offset="0.9375" stop-color="rgb(85.322571%, 46.629333%, 46.629333%)" stop-opacity="1"/>
<stop offset="0.953125" stop-color="rgb(85.23407%, 46.307373%, 46.307373%)" stop-opacity="1"/>
<stop offset="0.96875" stop-color="rgb(85.145569%, 45.985413%, 45.985413%)" stop-opacity="1"/>
<stop offset="0.984375" stop-color="rgb(85.057068%, 45.663452%, 45.663452%)" stop-opacity="1"/>
<stop offset="1" stop-color="rgb(84.968567%, 45.341492%, 45.341492%)" stop-opacity="1"/>
</linearGradient>
<clipPath id="clip-4">
<path clip-rule="nonzero" d="M 2409 850 L 3242 850 L 3242 1395 L 2409 1395 Z M 2409 850 "/>
</clipPath>
<clipPath id="clip-5">
<path clip-rule="nonzero" d="M 2493.179688 1028.601562 L 2499.46875 1027.75 C 2500.800781 1027.109375 2502.191406 1026.519531 2503.628906 1025.988281 L 2967.898438 854.21875 C 2993.449219 844.769531 3026.390625 855.390625 3041.75 878.039062 L 3233.960938 1161.410156 C 3249.320312 1184.050781 3241.121094 1209.898438 3215.558594 1219.351562 L 2751.300781 1391.109375 C 2725.738281 1400.570312 2692.808594 1389.949219 2677.441406 1367.300781 L 2485.238281 1083.929688 C 2484.351562 1082.621094 2483.539062 1081.300781 2482.808594 1079.96875 L 2409.261719 1075.941406 L 2424.371094 1054.890625 L 2493.179688 1028.601562 "/>
</clipPath>
<linearGradient id="linear-pattern-2" gradientUnits="userSpaceOnUse" x1="-0.594034" y1="0" x2="1.519903" y2="0" gradientTransform="matrix(-397.994, -262.006, -262.006, 397.994, 3013.76, 1243.62)">
<stop offset="0" stop-color="rgb(95.684814%, 80.783081%, 36.862183%)" stop-opacity="1"/>
<stop offset="0.25" stop-color="rgb(95.684814%, 80.783081%, 36.862183%)" stop-opacity="1"/>
<stop offset="0.28125" stop-color="rgb(95.684814%, 80.783081%, 36.863708%)" stop-opacity="1"/>
<stop offset="0.296875" stop-color="rgb(95.692444%, 80.822754%, 37.042236%)" stop-opacity="1"/>
<stop offset="0.3125" stop-color="rgb(95.704651%, 80.900574%, 37.391663%)" stop-opacity="1"/>
<stop offset="0.328125" stop-color="rgb(95.718384%, 80.978394%, 37.741089%)" stop-opacity="1"/>
<stop offset="0.34375" stop-color="rgb(95.730591%, 81.056213%, 38.090515%)" stop-opacity="1"/>
<stop offset="0.359375" stop-color="rgb(95.744324%, 81.134033%, 38.439941%)" stop-opacity="1"/>
<stop offset="0.375" stop-color="rgb(95.756531%, 81.211853%, 38.790894%)" stop-opacity="1"/>
<stop offset="0.390625" stop-color="rgb(95.770264%, 81.289673%, 39.14032%)" stop-opacity="1"/>
<stop offset="0.40625" stop-color="rgb(95.782471%, 81.367493%, 39.489746%)" stop-opacity="1"/>
<stop offset="0.421875" stop-color="rgb(95.796204%, 81.445312%, 39.839172%)" stop-opacity="1"/>
<stop offset="0.4375" stop-color="rgb(95.808411%, 81.521606%, 40.188599%)" stop-opacity="1"/>
<stop offset="0.453125" stop-color="rgb(95.820618%, 81.599426%, 40.539551%)" stop-opacity="1"/>
<stop offset="0.46875" stop-color="rgb(95.834351%, 81.677246%, 40.888977%)" stop-opacity="1"/>
<stop offset="0.484375" stop-color="rgb(95.846558%, 81.755066%, 41.238403%)" stop-opacity="1"/>
<stop offset="0.5" stop-color="rgb(95.860291%, 81.832886%, 41.58783%)" stop-opacity="1"/>
<stop offset="0.515625" stop-color="rgb(95.872498%, 81.910706%, 41.937256%)" stop-opacity="1"/>
<stop offset="0.53125" stop-color="rgb(95.88623%, 81.988525%, 42.288208%)" stop-opacity="1"/>
<stop offset="0.546875" stop-color="rgb(95.898438%, 82.066345%, 42.637634%)" stop-opacity="1"/>
<stop offset="0.5625" stop-color="rgb(95.91217%, 82.144165%, 42.987061%)" stop-opacity="1"/>
<stop offset="0.578125" stop-color="rgb(95.924377%, 82.221985%, 43.336487%)" stop-opacity="1"/>
<stop offset="0.59375" stop-color="rgb(95.93811%, 82.299805%, 43.685913%)" stop-opacity="1"/>
<stop offset="0.609375" stop-color="rgb(95.950317%, 82.377625%, 44.036865%)" stop-opacity="1"/>
<stop offset="0.625" stop-color="rgb(95.96405%, 82.455444%, 44.386292%)" stop-opacity="1"/>
<stop offset="0.640625" stop-color="rgb(95.976257%, 82.533264%, 44.735718%)" stop-opacity="1"/>
<stop offset="0.65625" stop-color="rgb(95.98999%, 82.611084%, 45.085144%)" stop-opacity="1"/>
<stop offset="0.671875" stop-color="rgb(96.002197%, 82.688904%, 45.43457%)" stop-opacity="1"/>
<stop offset="0.6875" stop-color="rgb(96.01593%, 82.765198%, 45.785522%)" stop-opacity="1"/>
<stop offset="0.703125" stop-color="rgb(96.028137%, 82.843018%, 46.134949%)" stop-opacity="1"/>
<stop offset="0.71875" stop-color="rgb(96.04187%, 82.920837%, 46.484375%)" stop-opacity="1"/>
<stop offset="0.734375" stop-color="rgb(96.054077%, 82.998657%, 46.833801%)" stop-opacity="1"/>
<stop offset="0.75" stop-color="rgb(96.06781%, 83.076477%, 47.183228%)" stop-opacity="1"/>
<stop offset="1" stop-color="rgb(96.075439%, 83.125305%, 47.40448%)" stop-opacity="1"/>
</linearGradient>
</defs>
<g clip-path="url(#clip-0)">
<g clip-path="url(#clip-1)">
<path fill-rule="nonzero" fill="url(#linear-pattern-0)" d="M 562.757812 176.777344 L 1465.027344 86.957031 L 1554.917969 989.929688 L 652.648438 1079.75 Z M 562.757812 176.777344 "/>
</g>
</g>
<g clip-path="url(#clip-2)">
<g clip-path="url(#clip-3)">
<path fill-rule="nonzero" fill="url(#linear-pattern-1)" d="M 1385.910156 1045.0625 L 572.660156 998.296875 L 620.804688 161.066406 L 1434.054688 207.832031 Z M 1385.910156 1045.0625 "/>
</g>
</g>
<path fill-rule="nonzero" fill="rgb(100%, 100%, 100%)" fill-opacity="1" d="M 1016.640625 879.75 C 1022.5 880.160156 1027.308594 884.039062 1027.398438 888.398438 C 1027.75 897.769531 1028.109375 907.140625 1028.46875 916.511719 C 1028.648438 919.371094 1026.738281 921.921875 1023.488281 923.179688 C 1020.230469 924.429688 1016.128906 924.191406 1012.769531 922.539062 C 1009.398438 920.898438 1007.289062 918.109375 1007.25 915.25 C 1006.890625 905.890625 1006.539062 896.519531 1006.179688 887.148438 C 1006.050781 885.011719 1007.101562 883.011719 1009.070312 881.621094 C 1011.039062 880.21875 1013.769531 879.550781 1016.640625 879.75 "/>
<path fill-rule="nonzero" fill="rgb(100%, 100%, 100%)" fill-opacity="1" d="M 731.679688 594.898438 C 735.515625 595.070312 739.148438 596.78125 741.183594 599.371094 C 743.21875 601.949219 743.335938 605.019531 741.492188 607.378906 C 739.648438 609.730469 736.128906 611.019531 732.289062 610.738281 C 719.742188 610 707.199219 609.261719 694.652344 608.519531 C 690.84375 608.320312 687.253906 606.609375 685.246094 604.03125 C 683.238281 601.460938 683.121094 598.421875 684.9375 596.078125 C 686.757812 593.730469 690.234375 592.429688 694.046875 592.679688 C 706.589844 593.421875 719.132812 594.160156 731.679688 594.898438 "/>
<path fill-rule="nonzero" fill="rgb(100%, 100%, 100%)" fill-opacity="1" d="M 1343.691406 628.140625 C 1347.519531 628.320312 1351.148438 630.03125 1353.179688 632.621094 C 1355.210938 635.210938 1355.320312 638.261719 1353.480469 640.621094 C 1351.640625 642.980469 1348.121094 644.269531 1344.289062 643.988281 C 1331.738281 643.25 1319.199219 642.511719 1306.648438 641.769531 C 1302.820312 641.601562 1299.191406 639.890625 1297.148438 637.300781 C 1295.121094 634.710938 1295 631.648438 1296.851562 629.289062 C 1298.699219 626.929688 1302.21875 625.648438 1306.050781 625.929688 C 1318.601562 626.671875 1331.140625 627.398438 1343.691406 628.148438 "/>
<path fill-rule="nonzero" fill="rgb(100%, 100%, 100%)" fill-opacity="1" d="M 1006.378906 281.410156 C 1012.230469 281.820312 1017.050781 285.691406 1017.128906 290.058594 C 1017.488281 299.429688 1017.851562 308.800781 1018.210938 318.160156 C 1018.378906 321.03125 1016.46875 323.570312 1013.21875 324.820312 C 1009.96875 326.058594 1005.878906 325.820312 1002.511719 324.179688 C 999.152344 322.550781 997.039062 319.769531 996.992188 316.910156 C 996.632812 307.539062 996.273438 298.179688 995.914062 288.808594 C 995.792969 286.671875 996.835938 284.671875 998.808594 283.28125 C 1000.78125 281.878906 1003.511719 281.210938 1006.378906 281.410156 "/>
<path fill-rule="nonzero" fill="rgb(100%, 100%, 100%)" fill-opacity="1" d="M 989.882812 633.421875 C 996.203125 633.578125 1002.640625 630.898438 1005.921875 626.75 C 1009.210938 622.609375 1008.628906 617.890625 1004.480469 614.988281 C 971.980469 591.578125 939.484375 568.160156 906.984375 544.738281 C 903.589844 542.191406 898.136719 541.351562 892.726562 542.539062 C 887.3125 543.730469 882.78125 546.769531 880.871094 550.488281 C 878.964844 554.199219 879.976562 558.019531 883.519531 560.46875 C 916.015625 583.878906 948.511719 607.300781 981.011719 630.71875 C 983.234375 632.378906 986.378906 633.339844 989.882812 633.421875 "/>
<path fill-rule="nonzero" fill="rgb(100%, 100%, 100%)" fill-opacity="1" d="M 944.417969 632.78125 C 947.800781 632.71875 951.246094 631.871094 954.191406 630.359375 C 1035.199219 589.890625 1116.210938 549.421875 1197.21875 508.949219 C 1202.03125 506.621094 1205.058594 502.859375 1205.140625 499.121094 C 1205.210938 495.371094 1202.308594 492.21875 1197.558594 490.878906 C 1192.820312 489.550781 1186.960938 490.230469 1182.238281 492.660156 C 1101.230469 533.128906 1020.21875 573.601562 939.214844 614.070312 C 933.488281 616.859375 930.421875 621.601562 931.605469 625.851562 C 932.785156 630.101562 937.949219 632.890625 944.417969 632.78125 "/>
<path fill-rule="nonzero" fill="rgb(12.939453%, 26.660156%, 47.068787%)" fill-opacity="1" d="M 1805.808594 1581.460938 C 1796.550781 1639.578125 1773.570312 1702.039062 1740.011719 1760.328125 C 1725.761719 1784.851562 1709.851562 1808.25 1692.679688 1829.9375 L 1669.46875 1829.9375 C 1656.910156 1829.9375 1646.808594 1840.042969 1646.808594 1852.59375 C 1646.808594 1865.144531 1656.910156 1875.253906 1669.46875 1875.253906 L 2055.28125 1875.253906 C 2067.828125 1875.253906 2077.941406 1865.144531 2077.941406 1852.59375 C 2077.941406 1840.042969 2067.828125 1829.9375 2055.28125 1829.9375 L 2032.261719 1829.9375 C 2015.019531 1808.265625 1999.050781 1784.863281 1984.738281 1760.328125 C 1951.140625 1702.0625 1928.109375 1639.601562 1918.800781 1581.460938 L 1805.808594 1581.460938 "/>
<path fill-rule="nonzero" fill="rgb(83.59375%, 89.84375%, 100%)" fill-opacity="1" d="M 2525.21875 626 L 1224.78125 626 C 1177.371094 626 1139.199219 667.269531 1139.199219 718.539062 L 1139.199219 1559.082031 C 1139.199219 1610.347656 1177.371094 1651.621094 1224.78125 1651.621094 L 2525.21875 1651.621094 C 2572.628906 1651.621094 2610.808594 1610.347656 2610.808594 1559.082031 L 2610.808594 718.539062 C 2610.808594 667.269531 2572.628906 626 2525.21875 626 "/>
<path fill-rule="nonzero" fill="rgb(33.325195%, 59.959412%, 100%)" fill-opacity="1" d="M 2525.21875 626 C 2572.628906 626 2610.808594 667.269531 2610.808594 718.539062 L 2610.808594 1512.8125 L 1139.191406 1512.8125 L 1139.191406 718.539062 C 1139.191406 667.269531 1177.371094 626 1224.78125 626 L 2525.21875 626 "/>
<path fill-rule="nonzero" fill="rgb(0%, 19.993591%, 50.193787%)" fill-opacity="1" d="M 2535.921875 703.109375 L 1214.078125 703.109375 L 1214.078125 1435.699219 L 2535.921875 1435.699219 L 2535.921875 703.109375 "/>
<path fill-rule="nonzero" fill="rgb(100%, 98.046875%, 94.139099%)" fill-opacity="1" d="M 1364.121094 1385.601562 L 1364.121094 277.25 C 1364.121094 250.308594 1391.148438 228.601562 1424.738281 228.589844 L 2325.261719 228.171875 C 2358.851562 228.148438 2385.878906 249.828125 2385.878906 276.78125 L 2385.878906 1385.128906 C 2385.878906 1412.070312 2358.851562 1433.78125 2325.261719 1433.789062 L 1424.738281 1434.210938 C 1391.148438 1434.230469 1364.121094 1412.550781 1364.121094 1385.601562 "/>
<path fill-rule="nonzero" fill="rgb(100%, 100%, 100%)" fill-opacity="1" d="M 2354.851562 276.730469 C 2359.210938 275.859375 2363.109375 276.878906 2365.058594 279.398438 C 2367.011719 281.910156 2366.699219 285.539062 2364.261719 288.878906 C 2361.808594 292.21875 2357.609375 294.75 2353.269531 295.5 C 2339.050781 298.148438 2324.839844 300.800781 2310.621094 303.460938 C 2306.300781 304.289062 2302.449219 303.25 2300.53125 300.738281 C 2298.609375 298.230469 2298.910156 294.628906 2301.328125 291.308594 C 2303.738281 287.988281 2307.898438 285.460938 2312.210938 284.679688 C 2326.429688 282.03125 2340.640625 279.378906 2354.851562 276.730469 "/>
<path fill-rule="nonzero" fill="rgb(66.601562%, 80.076599%, 100%)" fill-opacity="1" d="M 1768.199219 1224.53125 C 1768.199219 1221.691406 1765.789062 1219.339844 1762.960938 1219.339844 L 1709.910156 1219.371094 C 1707.078125 1219.371094 1704.671875 1221.71875 1704.671875 1224.558594 L 1704.671875 1276.78125 C 1704.671875 1279.621094 1707.089844 1281.96875 1709.910156 1281.96875 L 1762.960938 1281.941406 C 1765.789062 1281.941406 1768.199219 1279.589844 1768.199219 1276.75 Z M 1761.878906 1225.640625 L 1761.878906 1275.648438 L 1710.988281 1275.671875 L 1710.988281 1225.660156 L 1761.878906 1225.640625 "/>
<path fill-rule="nonzero" fill="rgb(66.601562%, 80.076599%, 100%)" fill-opacity="1" d="M 1633.191406 1224.601562 C 1633.191406 1221.75 1630.78125 1219.398438 1627.960938 1219.410156 L 1574.910156 1219.429688 C 1572.078125 1219.429688 1569.671875 1221.78125 1569.671875 1224.621094 L 1569.671875 1276.839844 C 1569.671875 1279.691406 1572.078125 1282.03125 1574.910156 1282.03125 L 1627.960938 1282.011719 C 1630.78125 1282.011719 1633.191406 1279.660156 1633.191406 1276.808594 Z M 1626.878906 1225.699219 L 1626.878906 1275.710938 L 1575.988281 1275.738281 L 1575.988281 1225.71875 L 1626.878906 1225.699219 "/>
<path fill-rule="nonzero" fill="rgb(66.601562%, 80.076599%, 100%)" fill-opacity="1" d="M 1495.96875 1224.660156 C 1495.96875 1221.808594 1493.558594 1219.46875 1490.730469 1219.46875 L 1437.679688 1219.488281 C 1434.851562 1219.488281 1432.441406 1221.839844 1432.441406 1224.691406 L 1432.441406 1276.898438 C 1432.441406 1279.75 1434.851562 1282.101562 1437.679688 1282.101562 L 1490.730469 1282.070312 C 1493.558594 1282.070312 1495.96875 1279.71875 1495.96875 1276.878906 Z M 1489.648438 1225.761719 L 1489.648438 1275.78125 L 1438.761719 1275.800781 L 1438.761719 1225.789062 L 1489.648438 1225.761719 "/>
<path fill-rule="nonzero" fill="rgb(66.601562%, 80.076599%, 100%)" fill-opacity="1" d="M 1395.101562 405.46875 L 1755.230469 405.058594 C 1756.511719 405.078125 1757.691406 404.410156 1758.339844 403.320312 C 1758.980469 402.21875 1758.980469 400.859375 1758.339844 399.769531 C 1757.691406 398.671875 1756.511719 398 1755.230469 398.019531 L 1395.101562 398.429688 C 1393.820312 398.410156 1392.628906 399.078125 1391.988281 400.171875 C 1391.339844 401.269531 1391.339844 402.621094 1391.988281 403.71875 C 1392.628906 404.820312 1393.820312 405.488281 1395.101562 405.46875 "/>
<path fill-rule="nonzero" fill="rgb(66.601562%, 80.076599%, 100%)" fill-opacity="1" d="M 1395.101562 373.578125 L 1815.03125 373.210938 C 1816.410156 373.238281 1817.710938 372.519531 1818.410156 371.328125 C 1819.109375 370.148438 1819.109375 368.671875 1818.410156 367.480469 C 1817.710938 366.300781 1816.410156 365.578125 1815.03125 365.609375 L 1395.101562 365.980469 C 1393.730469 365.96875 1392.460938 366.699219 1391.78125 367.871094 C 1391.089844 369.050781 1391.089844 370.5 1391.78125 371.679688 C 1392.460938 372.859375 1393.730469 373.589844 1395.101562 373.578125 "/>
<path fill-rule="nonzero" fill="rgb(66.601562%, 80.076599%, 100%)" fill-opacity="1" d="M 1395.101562 342.429688 L 1815.03125 342.058594 C 1816.410156 342.089844 1817.710938 341.371094 1818.410156 340.191406 C 1819.109375 339 1819.109375 337.519531 1818.410156 336.328125 C 1817.710938 335.148438 1816.410156 334.429688 1815.03125 334.460938 L 1395.101562 334.828125 C 1393.710938 334.800781 1392.421875 335.519531 1391.710938 336.710938 C 1391.011719 337.890625 1391.011719 339.371094 1391.710938 340.558594 C 1392.421875 341.738281 1393.710938 342.460938 1395.101562 342.441406 "/>
<path fill-rule="nonzero" fill="rgb(66.601562%, 80.076599%, 100%)" fill-opacity="1" d="M 1768.199219 964.421875 C 1768.199219 961.578125 1765.789062 959.230469 1762.960938 959.230469 L 1709.910156 959.261719 C 1707.078125 959.261719 1704.671875 961.609375 1704.671875 964.449219 L 1704.671875 1016.671875 C 1704.671875 1019.511719 1707.089844 1021.859375 1709.910156 1021.859375 L 1762.960938 1021.828125 C 1765.789062 1021.828125 1768.199219 1019.480469 1768.199219 1016.640625 Z M 1761.878906 965.53125 L 1761.878906 1015.539062 L 1710.988281 1015.558594 L 1710.988281 965.550781 L 1761.878906 965.53125 "/>
<path fill-rule="nonzero" fill="rgb(66.601562%, 80.076599%, 100%)" fill-opacity="1" d="M 1633.191406 964.480469 C 1633.191406 961.640625 1630.78125 959.289062 1627.960938 959.289062 L 1574.910156 959.320312 C 1572.078125 959.320312 1569.671875 961.671875 1569.671875 964.511719 L 1569.671875 1016.730469 C 1569.671875 1019.570312 1572.078125 1021.921875 1574.910156 1021.921875 L 1627.960938 1021.898438 C 1630.78125 1021.890625 1633.191406 1019.550781 1633.191406 1016.699219 Z M 1626.878906 965.589844 L 1626.878906 1015.601562 L 1575.988281 1015.628906 L 1575.988281 965.609375 L 1626.878906 965.589844 "/>
<path fill-rule="nonzero" fill="rgb(66.601562%, 80.076599%, 100%)" fill-opacity="1" d="M 1495.96875 964.550781 C 1495.96875 961.699219 1493.558594 959.359375 1490.730469 959.359375 L 1437.679688 959.378906 C 1434.851562 959.378906 1432.441406 961.730469 1432.441406 964.578125 L 1432.441406 1016.789062 C 1432.441406 1019.640625 1434.851562 1021.988281 1437.679688 1021.980469 L 1490.730469 1021.960938 C 1493.558594 1021.960938 1495.96875 1019.609375 1495.96875 1016.761719 Z M 1489.648438 965.648438 L 1489.648438 1015.671875 L 1438.761719 1015.691406 L 1438.761719 965.679688 L 1489.648438 965.648438 "/>
<path fill-rule="nonzero" fill="rgb(66.601562%, 80.076599%, 100%)" fill-opacity="1" d="M 1395.101562 1152.109375 L 1755.230469 1151.699219 C 1756.511719 1151.71875 1757.691406 1151.050781 1758.339844 1149.949219 C 1758.980469 1148.859375 1758.980469 1147.5 1758.339844 1146.398438 C 1757.691406 1145.308594 1756.511719 1144.640625 1755.230469 1144.660156 L 1395.101562 1145.070312 C 1393.820312 1145.050781 1392.628906 1145.710938 1391.988281 1146.808594 C 1391.339844 1147.910156 1391.339844 1149.261719 1391.988281 1150.359375 C 1392.628906 1151.460938 1393.820312 1152.128906 1395.101562 1152.109375 "/>
<path fill-rule="nonzero" fill="rgb(66.601562%, 80.076599%, 100%)" fill-opacity="1" d="M 1395.101562 1114.109375 L 1815.03125 1113.730469 C 1816.410156 1113.761719 1817.710938 1113.050781 1818.410156 1111.859375 C 1819.109375 1110.671875 1819.109375 1109.199219 1818.410156 1108.011719 C 1817.710938 1106.820312 1816.410156 1106.101562 1815.03125 1106.128906 L 1395.101562 1106.5 C 1393.730469 1106.5 1392.460938 1107.21875 1391.78125 1108.398438 C 1391.089844 1109.570312 1391.089844 1111.03125 1391.78125 1112.210938 C 1392.460938 1113.378906 1393.730469 1114.109375 1395.101562 1114.109375 "/>
<path fill-rule="nonzero" fill="rgb(66.601562%, 80.076599%, 100%)" fill-opacity="1" d="M 1395.101562 1082.960938 L 1815.03125 1082.578125 C 1816.410156 1082.609375 1817.710938 1081.898438 1818.410156 1080.710938 C 1819.109375 1079.519531 1819.109375 1078.050781 1818.410156 1076.859375 C 1817.710938 1075.671875 1816.410156 1074.949219 1815.03125 1074.980469 L 1395.101562 1075.351562 C 1393.710938 1075.320312 1392.421875 1076.039062 1391.710938 1077.230469 C 1391.011719 1078.421875 1391.011719 1079.890625 1391.710938 1081.078125 C 1392.421875 1082.269531 1393.710938 1082.988281 1395.101562 1082.960938 "/>
<path fill-rule="nonzero" fill="rgb(78.514099%, 21.556091%, 21.556091%)" fill-opacity="1" d="M 1640.921875 963.601562 C 1639.210938 963.558594 1637.539062 964.101562 1636.171875 965.128906 L 1593.320312 996.449219 L 1574.320312 975.851562 C 1572.488281 973.820312 1569.71875 972.941406 1567.050781 973.519531 C 1564.378906 974.109375 1562.238281 976.089844 1561.441406 978.699219 C 1560.640625 981.308594 1561.300781 984.148438 1563.171875 986.140625 L 1586.761719 1011.710938 C 1589.371094 1014.539062 1593.691406 1014.960938 1596.800781 1012.691406 L 1645.121094 977.371094 C 1647.78125 975.480469 1648.941406 972.089844 1647.988281 968.96875 C 1647.03125 965.839844 1644.191406 963.679688 1640.921875 963.601562 "/>
<path fill-rule="nonzero" fill="rgb(66.601562%, 80.076599%, 100%)" fill-opacity="1" d="M 2269.101562 1224.300781 C 2269.101562 1221.460938 2266.691406 1219.109375 2263.871094 1219.109375 L 2210.820312 1219.140625 C 2207.988281 1219.140625 2205.578125 1221.488281 2205.578125 1224.328125 L 2205.578125 1276.550781 C 2205.578125 1279.390625 2207.988281 1281.738281 2210.820312 1281.738281 L 2263.871094 1281.710938 C 2266.691406 1281.710938 2269.101562 1279.359375 2269.101562 1276.519531 Z M 2262.789062 1225.410156 L 2262.789062 1275.421875 L 2211.898438 1275.441406 L 2211.898438 1225.429688 L 2262.789062 1225.410156 "/>
<path fill-rule="nonzero" fill="rgb(66.601562%, 80.076599%, 100%)" fill-opacity="1" d="M 2134.101562 1224.359375 C 2134.101562 1221.519531 2131.691406 1219.171875 2128.871094 1219.171875 L 2075.820312 1219.199219 C 2072.988281 1219.199219 2070.578125 1221.550781 2070.578125 1224.390625 L 2070.578125 1276.609375 C 2070.578125 1279.449219 2072.988281 1281.800781 2075.820312 1281.800781 L 2128.871094 1281.78125 C 2131.691406 1281.769531 2134.101562 1279.421875 2134.101562 1276.578125 Z M 2127.78125 1225.46875 L 2127.78125 1275.480469 L 2076.898438 1275.5 L 2076.898438 1225.488281 L 2127.78125 1225.46875 "/>
<path fill-rule="nonzero" fill="rgb(66.601562%, 80.076599%, 100%)" fill-opacity="1" d="M 1996.871094 1224.429688 C 1996.871094 1221.578125 1994.460938 1219.238281 1991.640625 1219.238281 L 1938.589844 1219.261719 C 1935.761719 1219.261719 1933.351562 1221.609375 1933.351562 1224.460938 L 1933.351562 1276.671875 C 1933.351562 1279.519531 1935.761719 1281.859375 1938.589844 1281.859375 L 1991.640625 1281.839844 C 1994.460938 1281.839844 1996.871094 1279.488281 1996.871094 1276.640625 Z M 1990.558594 1225.53125 L 1990.558594 1275.539062 L 1939.671875 1275.570312 L 1939.671875 1225.558594 L 1990.558594 1225.53125 "/>
<path fill-rule="nonzero" fill="rgb(66.601562%, 80.076599%, 100%)" fill-opacity="1" d="M 1896.011719 405.238281 L 2256.140625 404.828125 C 2257.410156 404.851562 2258.601562 404.179688 2259.25 403.078125 C 2259.890625 401.988281 2259.890625 400.628906 2259.25 399.53125 C 2258.601562 398.441406 2257.410156 397.769531 2256.140625 397.789062 L 1896.011719 398.199219 C 1894.730469 398.179688 1893.539062 398.839844 1892.898438 399.941406 C 1892.25 401.039062 1892.25 402.390625 1892.898438 403.488281 C 1893.539062 404.589844 1894.730469 405.261719 1896.011719 405.238281 "/>
<path fill-rule="nonzero" fill="rgb(66.601562%, 80.076599%, 100%)" fill-opacity="1" d="M 1896 373.351562 L 2315.929688 372.980469 C 2317.320312 373.011719 2318.609375 372.289062 2319.320312 371.101562 C 2320.019531 369.910156 2320.019531 368.441406 2319.320312 367.25 C 2318.609375 366.058594 2317.320312 365.339844 2315.929688 365.371094 L 1896 365.75 C 1894.640625 365.738281 1893.371094 366.460938 1892.679688 367.640625 C 1892 368.820312 1892 370.269531 1892.679688 371.449219 C 1893.371094 372.628906 1894.640625 373.351562 1896 373.351562 "/>
<path fill-rule="nonzero" fill="rgb(66.601562%, 80.076599%, 100%)" fill-opacity="1" d="M 1896 342.199219 L 2315.929688 341.828125 C 2317.320312 341.859375 2318.621094 341.140625 2319.320312 339.949219 C 2320.019531 338.769531 2320.019531 337.289062 2319.320312 336.101562 C 2318.621094 334.910156 2317.320312 334.191406 2315.929688 334.21875 L 1896 334.601562 C 1894.621094 334.570312 1893.320312 335.289062 1892.621094 336.46875 C 1891.921875 337.660156 1891.921875 339.140625 1892.621094 340.320312 C 1893.320312 341.511719 1894.621094 342.230469 1896 342.199219 "/>
<path fill-rule="nonzero" fill="rgb(66.601562%, 80.076599%, 100%)" fill-opacity="1" d="M 2269.101562 964.191406 C 2269.101562 961.351562 2266.691406 959 2263.871094 959 L 2210.820312 959.019531 C 2207.988281 959.03125 2205.578125 961.378906 2205.578125 964.21875 L 2205.578125 1016.441406 C 2205.578125 1019.28125 2207.988281 1021.628906 2210.820312 1021.628906 L 2263.871094 1021.601562 C 2266.691406 1021.601562 2269.101562 1019.25 2269.101562 1016.410156 Z M 2262.789062 965.300781 L 2262.789062 1015.308594 L 2211.898438 1015.328125 L 2211.898438 965.320312 L 2262.789062 965.300781 "/>
<path fill-rule="nonzero" fill="rgb(66.601562%, 80.076599%, 100%)" fill-opacity="1" d="M 2134.101562 964.25 C 2134.101562 961.410156 2131.691406 959.058594 2128.871094 959.058594 L 2075.820312 959.089844 C 2072.988281 959.089844 2070.578125 961.441406 2070.578125 964.28125 L 2070.578125 1016.5 C 2070.578125 1019.339844 2072.988281 1021.691406 2075.820312 1021.691406 L 2128.871094 1021.660156 C 2131.691406 1021.660156 2134.101562 1019.308594 2134.101562 1016.46875 Z M 2127.78125 965.359375 L 2127.78125 1015.371094 L 2076.898438 1015.390625 L 2076.898438 965.378906 L 2127.78125 965.359375 "/>
<path fill-rule="nonzero" fill="rgb(66.601562%, 80.076599%, 100%)" fill-opacity="1" d="M 1996.871094 964.308594 C 1996.871094 961.46875 1994.460938 959.121094 1991.640625 959.128906 L 1938.589844 959.148438 C 1935.761719 959.148438 1933.351562 961.5 1933.351562 964.339844 L 1933.351562 1016.558594 C 1933.351562 1019.398438 1935.761719 1021.75 1938.589844 1021.75 L 1991.640625 1021.730469 C 1994.460938 1021.730469 1996.871094 1019.378906 1996.871094 1016.53125 Z M 1990.558594 965.421875 L 1990.558594 1015.429688 L 1939.671875 1015.460938 L 1939.671875 965.441406 L 1990.558594 965.421875 "/>
<path fill-rule="nonzero" fill="rgb(66.601562%, 80.076599%, 100%)" fill-opacity="1" d="M 1896.011719 1151.878906 L 2256.140625 1151.46875 C 2257.410156 1151.480469 2258.601562 1150.820312 2259.25 1149.71875 C 2259.890625 1148.621094 2259.890625 1147.269531 2259.25 1146.171875 C 2258.601562 1145.070312 2257.410156 1144.410156 2256.140625 1144.421875 L 1896.011719 1144.828125 C 1894.730469 1144.820312 1893.539062 1145.480469 1892.898438 1146.578125 C 1892.25 1147.671875 1892.25 1149.03125 1892.898438 1150.128906 C 1893.539062 1151.230469 1894.730469 1151.890625 1896.011719 1151.878906 "/>
<path fill-rule="nonzero" fill="rgb(66.601562%, 80.076599%, 100%)" fill-opacity="1" d="M 1896 1113.871094 L 2315.929688 1113.5 C 2317.320312 1113.53125 2318.609375 1112.808594 2319.320312 1111.628906 C 2320.019531 1110.441406 2320.019531 1108.960938 2319.320312 1107.78125 C 2318.609375 1106.589844 2317.320312 1105.871094 2315.929688 1105.898438 L 1896 1106.269531 C 1894.640625 1106.261719 1893.371094 1106.988281 1892.679688 1108.171875 C 1892 1109.339844 1892 1110.789062 1892.679688 1111.96875 C 1893.371094 1113.148438 1894.640625 1113.878906 1896 1113.871094 "/>
<path fill-rule="nonzero" fill="rgb(66.601562%, 80.076599%, 100%)" fill-opacity="1" d="M 1896 1082.730469 L 2315.929688 1082.351562 C 2317.320312 1082.378906 2318.621094 1081.671875 2319.320312 1080.480469 C 2320.019531 1079.289062 2320.019531 1077.820312 2319.320312 1076.628906 C 2318.621094 1075.441406 2317.320312 1074.71875 2315.929688 1074.75 L 1896 1075.121094 C 1894.621094 1075.089844 1893.320312 1075.808594 1892.621094 1077 C 1891.921875 1078.191406 1891.921875 1079.660156 1892.621094 1080.851562 C 1893.320312 1082.039062 1894.621094 1082.761719 1896 1082.730469 "/>
<path fill-rule="nonzero" fill="rgb(78.514099%, 21.556091%, 21.556091%)" fill-opacity="1" d="M 2272.410156 963.308594 C 2270.699219 963.269531 2269.019531 963.808594 2267.660156 964.839844 L 2224.808594 996.160156 L 2205.808594 975.558594 C 2203.980469 973.53125 2201.199219 972.640625 2198.539062 973.230469 C 2195.871094 973.820312 2193.730469 975.800781 2192.921875 978.410156 C 2192.121094 981.019531 2192.78125 983.859375 2194.660156 985.839844 L 2218.238281 1011.421875 C 2220.859375 1014.25 2225.179688 1014.671875 2228.289062 1012.390625 L 2276.601562 977.078125 C 2279.269531 975.191406 2280.429688 971.800781 2279.46875 968.679688 C 2278.519531 965.550781 2275.671875 963.390625 2272.410156 963.308594 "/>
<path fill-rule="nonzero" fill="rgb(78.514099%, 21.556091%, 21.556091%)" fill-opacity="1" d="M 2146.109375 1222.390625 C 2144.398438 1222.339844 2142.730469 1222.878906 2141.359375 1223.910156 L 2098.511719 1255.238281 L 2079.511719 1234.640625 C 2077.679688 1232.609375 2074.910156 1231.71875 2072.238281 1232.308594 C 2069.570312 1232.898438 2067.429688 1234.871094 2066.628906 1237.488281 C 2065.820312 1240.101562 2066.488281 1242.941406 2068.359375 1244.921875 L 2091.949219 1270.488281 C 2094.558594 1273.320312 2098.878906 1273.738281 2101.988281 1271.46875 L 2150.308594 1236.148438 C 2152.96875 1234.261719 2154.128906 1230.878906 2153.179688 1227.75 C 2152.21875 1224.628906 2149.371094 1222.460938 2146.109375 1222.390625 "/>
<path fill-rule="nonzero" fill="rgb(78.514099%, 21.556091%, 21.556091%)" fill-opacity="1" d="M 1503.921875 1222.679688 C 1502.210938 1222.640625 1500.539062 1223.179688 1499.171875 1224.210938 L 1456.320312 1255.53125 L 1437.320312 1234.929688 C 1435.488281 1232.898438 1432.71875 1232.019531 1430.050781 1232.601562 C 1427.378906 1233.191406 1425.238281 1235.171875 1424.441406 1237.78125 C 1423.628906 1240.390625 1424.300781 1243.230469 1426.171875 1245.21875 L 1449.761719 1270.789062 C 1452.371094 1273.621094 1456.691406 1274.039062 1459.800781 1271.769531 L 1508.121094 1236.449219 C 1510.78125 1234.558594 1511.941406 1231.171875 1510.988281 1228.050781 C 1510.03125 1224.921875 1507.179688 1222.761719 1503.921875 1222.679688 "/>
<path fill-rule="nonzero" fill="rgb(66.601562%, 80.076599%, 100%)" fill-opacity="1" d="M 1768.199219 723.570312 C 1768.199219 720.730469 1765.789062 718.378906 1762.960938 718.378906 L 1709.910156 718.398438 C 1707.078125 718.410156 1704.671875 720.761719 1704.671875 723.601562 L 1704.671875 775.820312 C 1704.671875 778.660156 1707.089844 781.011719 1709.910156 781.011719 L 1762.960938 780.980469 C 1765.789062 780.980469 1768.199219 778.628906 1768.199219 775.789062 Z M 1761.878906 724.679688 L 1761.878906 774.691406 L 1710.988281 774.710938 L 1710.988281 724.699219 L 1761.878906 724.679688 "/>
<path fill-rule="nonzero" fill="rgb(66.601562%, 80.076599%, 100%)" fill-opacity="1" d="M 1633.191406 723.628906 C 1633.191406 720.789062 1630.78125 718.441406 1627.960938 718.441406 L 1574.910156 718.46875 C 1572.078125 718.46875 1569.671875 720.820312 1569.671875 723.660156 L 1569.671875 775.878906 C 1569.671875 778.71875 1572.078125 781.070312 1574.910156 781.070312 L 1627.960938 781.039062 C 1630.78125 781.039062 1633.191406 778.691406 1633.191406 775.851562 Z M 1626.878906 724.738281 L 1626.878906 774.75 L 1575.988281 774.769531 L 1575.988281 724.761719 L 1626.878906 724.738281 "/>
<path fill-rule="nonzero" fill="rgb(66.601562%, 80.076599%, 100%)" fill-opacity="1" d="M 1495.96875 723.691406 C 1495.96875 720.851562 1493.558594 718.5 1490.730469 718.511719 L 1437.679688 718.53125 C 1434.851562 718.53125 1432.441406 720.878906 1432.441406 723.71875 L 1432.441406 775.941406 C 1432.441406 778.78125 1434.851562 781.128906 1437.679688 781.128906 L 1490.730469 781.109375 C 1493.558594 781.109375 1495.96875 778.761719 1495.96875 775.910156 Z M 1489.648438 724.800781 L 1489.648438 774.808594 L 1438.761719 774.839844 L 1438.761719 724.820312 L 1489.648438 724.800781 "/>
<path fill-rule="nonzero" fill="rgb(66.601562%, 80.076599%, 100%)" fill-opacity="1" d="M 1395.101562 911.261719 L 1755.230469 910.851562 C 1756.511719 910.859375 1757.691406 910.199219 1758.339844 909.101562 C 1758.980469 908 1758.980469 906.648438 1758.339844 905.550781 C 1757.691406 904.449219 1756.511719 903.789062 1755.230469 903.800781 L 1395.101562 904.210938 C 1393.820312 904.199219 1392.628906 904.859375 1391.988281 905.960938 C 1391.339844 907.050781 1391.339844 908.410156 1391.988281 909.511719 C 1392.628906 910.609375 1393.820312 911.269531 1395.101562 911.261719 "/>
<path fill-rule="nonzero" fill="rgb(66.601562%, 80.076599%, 100%)" fill-opacity="1" d="M 1395.101562 879.371094 L 1815.03125 879 C 1816.410156 879.03125 1817.710938 878.308594 1818.410156 877.121094 C 1819.109375 875.929688 1819.109375 874.460938 1818.410156 873.269531 C 1817.710938 872.078125 1816.410156 871.359375 1815.03125 871.390625 L 1395.101562 871.761719 C 1393.730469 871.761719 1392.460938 872.480469 1391.769531 873.660156 C 1391.089844 874.839844 1391.089844 876.289062 1391.769531 877.46875 C 1392.460938 878.648438 1393.730469 879.371094 1395.101562 879.371094 "/>
<path fill-rule="nonzero" fill="rgb(66.601562%, 80.076599%, 100%)" fill-opacity="1" d="M 1395.101562 848.21875 L 1815.03125 847.851562 C 1816.410156 847.878906 1817.710938 847.160156 1818.410156 845.96875 C 1819.109375 844.78125 1819.109375 843.308594 1818.410156 842.121094 C 1817.710938 840.929688 1816.410156 840.210938 1815.03125 840.238281 L 1395.101562 840.621094 C 1393.710938 840.589844 1392.421875 841.300781 1391.710938 842.488281 C 1391.011719 843.679688 1391.011719 845.148438 1391.710938 846.339844 C 1392.421875 847.53125 1393.710938 848.25 1395.101562 848.21875 "/>
<path fill-rule="nonzero" fill="rgb(66.601562%, 80.076599%, 100%)" fill-opacity="1" d="M 1768.199219 463.460938 C 1768.199219 460.621094 1765.789062 458.269531 1762.960938 458.269531 L 1709.910156 458.289062 C 1707.078125 458.289062 1704.671875 460.640625 1704.671875 463.488281 L 1704.671875 515.710938 C 1704.671875 518.550781 1707.089844 520.898438 1709.910156 520.890625 L 1762.960938 520.871094 C 1765.789062 520.871094 1768.199219 518.519531 1768.199219 515.679688 Z M 1761.878906 464.558594 L 1761.878906 514.578125 L 1710.988281 514.601562 L 1710.988281 464.589844 L 1761.878906 464.558594 "/>
<path fill-rule="nonzero" fill="rgb(66.601562%, 80.076599%, 100%)" fill-opacity="1" d="M 1633.191406 463.519531 C 1633.191406 460.679688 1630.78125 458.328125 1627.960938 458.328125 L 1574.910156 458.359375 C 1572.078125 458.359375 1569.671875 460.710938 1569.671875 463.550781 L 1569.671875 515.769531 C 1569.671875 518.609375 1572.078125 520.960938 1574.910156 520.960938 L 1627.960938 520.929688 C 1630.78125 520.929688 1633.191406 518.578125 1633.191406 515.738281 Z M 1626.878906 464.628906 L 1626.878906 514.640625 L 1575.988281 514.660156 L 1575.988281 464.648438 L 1626.878906 464.628906 "/>
<path fill-rule="nonzero" fill="rgb(66.601562%, 80.076599%, 100%)" fill-opacity="1" d="M 1495.96875 463.578125 C 1495.96875 460.738281 1493.558594 458.390625 1490.730469 458.390625 L 1437.679688 458.421875 C 1434.851562 458.421875 1432.441406 460.769531 1432.441406 463.609375 L 1432.441406 515.828125 C 1432.441406 518.671875 1434.851562 521.019531 1437.679688 521.019531 L 1490.730469 521 C 1493.558594 521 1495.96875 518.640625 1495.96875 515.800781 Z M 1489.648438 464.691406 L 1489.648438 514.699219 L 1438.761719 514.730469 L 1438.761719 464.710938 L 1489.648438 464.691406 "/>
<path fill-rule="nonzero" fill="rgb(66.601562%, 80.076599%, 100%)" fill-opacity="1" d="M 1395.101562 651.148438 L 1755.230469 650.730469 C 1756.511719 650.75 1757.691406 650.089844 1758.339844 648.988281 C 1758.980469 647.890625 1758.980469 646.539062 1758.339844 645.441406 C 1757.691406 644.339844 1756.511719 643.671875 1755.230469 643.691406 L 1395.101562 644.101562 C 1393.820312 644.078125 1392.628906 644.75 1391.988281 645.851562 C 1391.339844 646.941406 1391.339844 648.300781 1391.988281 649.398438 C 1392.628906 650.488281 1393.820312 651.160156 1395.101562 651.148438 "/>
<path fill-rule="nonzero" fill="rgb(66.601562%, 80.076599%, 100%)" fill-opacity="1" d="M 1395.101562 613.140625 L 1815.03125 612.769531 C 1816.410156 612.800781 1817.710938 612.078125 1818.410156 610.890625 C 1819.109375 609.710938 1819.109375 608.230469 1818.410156 607.039062 C 1817.710938 605.859375 1816.410156 605.140625 1815.03125 605.171875 L 1395.101562 605.539062 C 1393.730469 605.53125 1392.460938 606.261719 1391.769531 607.429688 C 1391.089844 608.609375 1391.089844 610.058594 1391.769531 611.238281 C 1392.460938 612.421875 1393.730469 613.140625 1395.101562 613.140625 "/>
<path fill-rule="nonzero" fill="rgb(66.601562%, 80.076599%, 100%)" fill-opacity="1" d="M 1395.101562 581.988281 L 1815.03125 581.621094 C 1816.410156 581.648438 1817.710938 580.929688 1818.410156 579.75 C 1819.109375 578.558594 1819.109375 577.078125 1818.410156 575.890625 C 1817.710938 574.710938 1816.410156 573.988281 1815.03125 574.019531 L 1395.101562 574.390625 C 1393.710938 574.359375 1392.421875 575.078125 1391.710938 576.269531 C 1391.011719 577.449219 1391.011719 578.929688 1391.710938 580.121094 C 1392.421875 581.300781 1393.710938 582.019531 1395.101562 581.988281 "/>
<path fill-rule="nonzero" fill="rgb(78.514099%, 21.556091%, 21.556091%)" fill-opacity="1" d="M 1640.921875 462.640625 C 1639.210938 462.601562 1637.539062 463.140625 1636.171875 464.160156 L 1593.320312 495.488281 L 1574.320312 474.890625 C 1572.488281 472.859375 1569.71875 471.96875 1567.050781 472.558594 C 1564.378906 473.148438 1562.238281 475.128906 1561.441406 477.738281 C 1560.640625 480.351562 1561.300781 483.191406 1563.171875 485.171875 L 1586.761719 510.75 C 1589.371094 513.578125 1593.691406 514 1596.800781 511.71875 L 1645.121094 476.410156 C 1647.78125 474.511719 1648.941406 471.128906 1647.988281 468.011719 C 1647.03125 464.878906 1644.191406 462.71875 1640.921875 462.640625 "/>
<path fill-rule="nonzero" fill="rgb(66.601562%, 80.076599%, 100%)" fill-opacity="1" d="M 2269.101562 723.339844 C 2269.101562 720.488281 2266.691406 718.148438 2263.871094 718.148438 L 2210.820312 718.171875 C 2207.988281 718.171875 2205.578125 720.519531 2205.578125 723.371094 L 2205.578125 775.589844 C 2205.578125 778.429688 2207.988281 780.78125 2210.820312 780.769531 L 2263.871094 780.75 C 2266.691406 780.75 2269.101562 778.398438 2269.101562 775.558594 Z M 2262.789062 724.441406 L 2262.789062 774.460938 L 2211.898438 774.480469 L 2211.898438 724.46875 L 2262.789062 724.441406 "/>
<path fill-rule="nonzero" fill="rgb(66.601562%, 80.076599%, 100%)" fill-opacity="1" d="M 2134.101562 723.398438 C 2134.101562 720.558594 2131.691406 718.210938 2128.871094 718.210938 L 2075.820312 718.230469 C 2072.988281 718.238281 2070.578125 720.589844 2070.578125 723.429688 L 2070.578125 775.648438 C 2070.578125 778.488281 2072.988281 780.839844 2075.820312 780.839844 L 2128.871094 780.808594 C 2131.691406 780.808594 2134.101562 778.460938 2134.101562 775.621094 Z M 2127.78125 724.511719 L 2127.78125 774.519531 L 2076.898438 774.539062 L 2076.898438 724.53125 L 2127.78125 724.511719 "/>
<path fill-rule="nonzero" fill="rgb(66.601562%, 80.076599%, 100%)" fill-opacity="1" d="M 1996.871094 723.460938 C 1996.871094 720.621094 1994.460938 718.269531 1991.640625 718.269531 L 1938.589844 718.300781 C 1935.761719 718.300781 1933.351562 720.648438 1933.351562 723.488281 L 1933.351562 775.710938 C 1933.351562 778.550781 1935.761719 780.898438 1938.589844 780.898438 L 1991.640625 780.878906 C 1994.460938 780.871094 1996.871094 778.519531 1996.871094 775.679688 Z M 1990.558594 724.570312 L 1990.558594 774.578125 L 1939.671875 774.609375 L 1939.671875 724.589844 L 1990.558594 724.570312 "/>
<path fill-rule="nonzero" fill="rgb(66.601562%, 80.076599%, 100%)" fill-opacity="1" d="M 1896.011719 911.019531 L 2256.140625 910.609375 C 2257.410156 910.628906 2258.601562 909.96875 2259.25 908.871094 C 2259.890625 907.769531 2259.890625 906.421875 2259.25 905.320312 C 2258.601562 904.21875 2257.410156 903.550781 2256.140625 903.570312 L 1896.011719 903.980469 C 1894.730469 903.960938 1893.539062 904.628906 1892.898438 905.730469 C 1892.25 906.820312 1892.25 908.179688 1892.898438 909.28125 C 1893.539062 910.371094 1894.730469 911.039062 1896.011719 911.019531 "/>
<path fill-rule="nonzero" fill="rgb(66.601562%, 80.076599%, 100%)" fill-opacity="1" d="M 1896 879.140625 L 2315.929688 878.761719 C 2317.320312 878.789062 2318.609375 878.078125 2319.320312 876.890625 C 2320.019531 875.699219 2320.019531 874.230469 2319.320312 873.039062 C 2318.609375 871.851562 2317.320312 871.128906 2315.929688 871.160156 L 1896 871.53125 C 1894.640625 871.53125 1893.371094 872.25 1892.679688 873.429688 C 1892 874.609375 1892 876.058594 1892.679688 877.238281 C 1893.371094 878.410156 1894.640625 879.140625 1896 879.140625 "/>
<path fill-rule="nonzero" fill="rgb(66.601562%, 80.076599%, 100%)" fill-opacity="1" d="M 1896 847.988281 L 2315.929688 847.609375 C 2317.320312 847.648438 2318.621094 846.929688 2319.320312 845.738281 C 2320.019531 844.550781 2320.019531 843.078125 2319.320312 841.890625 C 2318.621094 840.699219 2317.320312 839.980469 2315.929688 840.011719 L 1896 840.390625 C 1894.621094 840.351562 1893.320312 841.070312 1892.621094 842.261719 C 1891.921875 843.449219 1891.921875 844.921875 1892.621094 846.109375 C 1893.320312 847.300781 1894.621094 848.019531 1896 847.988281 "/>
<path fill-rule="nonzero" fill="rgb(66.601562%, 80.076599%, 100%)" fill-opacity="1" d="M 2269.101562 463.230469 C 2269.101562 460.378906 2266.691406 458.039062 2263.871094 458.039062 L 2210.820312 458.058594 C 2207.988281 458.058594 2205.578125 460.410156 2205.578125 463.261719 L 2205.578125 515.46875 C 2205.578125 518.320312 2207.988281 520.660156 2210.820312 520.660156 L 2263.871094 520.640625 C 2266.691406 520.640625 2269.101562 518.289062 2269.101562 515.449219 Z M 2262.789062 464.328125 L 2262.789062 514.339844 L 2211.898438 514.371094 L 2211.898438 464.359375 L 2262.789062 464.328125 "/>
<path fill-rule="nonzero" fill="rgb(66.601562%, 80.076599%, 100%)" fill-opacity="1" d="M 2134.101562 463.289062 C 2134.101562 460.449219 2131.691406 458.101562 2128.871094 458.101562 L 2075.820312 458.121094 C 2072.988281 458.121094 2070.578125 460.480469 2070.578125 463.320312 L 2070.578125 515.539062 C 2070.578125 518.378906 2072.988281 520.730469 2075.820312 520.730469 L 2128.871094 520.699219 C 2131.691406 520.699219 2134.101562 518.351562 2134.101562 515.511719 Z M 2127.78125 464.390625 L 2127.78125 514.410156 L 2076.898438 514.429688 L 2076.898438 464.421875 L 2127.78125 464.390625 "/>
<path fill-rule="nonzero" fill="rgb(66.601562%, 80.076599%, 100%)" fill-opacity="1" d="M 1996.871094 463.351562 C 1996.871094 460.511719 1994.460938 458.160156 1991.640625 458.160156 L 1938.589844 458.191406 C 1935.761719 458.191406 1933.351562 460.539062 1933.351562 463.378906 L 1933.351562 515.601562 C 1933.351562 518.441406 1935.761719 520.789062 1938.589844 520.789062 L 1991.640625 520.769531 C 1994.460938 520.761719 1996.871094 518.410156 1996.871094 515.570312 Z M 1990.558594 464.460938 L 1990.558594 514.46875 L 1939.671875 514.488281 L 1939.671875 464.480469 L 1990.558594 464.460938 "/>
<path fill-rule="nonzero" fill="rgb(66.601562%, 80.076599%, 100%)" fill-opacity="1" d="M 1896.011719 650.910156 L 2256.140625 650.5 C 2257.410156 650.519531 2258.601562 649.851562 2259.25 648.761719 C 2259.890625 647.660156 2259.890625 646.308594 2259.25 645.210938 C 2258.601562 644.109375 2257.410156 643.441406 2256.140625 643.460938 L 1896.011719 643.871094 C 1894.730469 643.851562 1893.539062 644.519531 1892.898438 645.621094 C 1892.25 646.710938 1892.25 648.070312 1892.898438 649.171875 C 1893.539062 650.261719 1894.730469 650.929688 1896.011719 650.910156 "/>
<path fill-rule="nonzero" fill="rgb(66.601562%, 80.076599%, 100%)" fill-opacity="1" d="M 1896 612.910156 L 2315.929688 612.539062 C 2317.320312 612.570312 2318.609375 611.851562 2319.320312 610.660156 C 2320.019531 609.46875 2320.019531 608 2319.320312 606.808594 C 2318.609375 605.621094 2317.320312 604.898438 2315.929688 604.929688 L 1896 605.308594 C 1894.640625 605.300781 1893.371094 606.019531 1892.679688 607.199219 C 1892 608.378906 1892 609.828125 1892.679688 611.011719 C 1893.371094 612.191406 1894.640625 612.910156 1896 612.910156 "/>
<path fill-rule="nonzero" fill="rgb(66.601562%, 80.076599%, 100%)" fill-opacity="1" d="M 1896 581.761719 L 2315.929688 581.390625 C 2317.320312 581.421875 2318.621094 580.699219 2319.320312 579.511719 C 2320.019531 578.328125 2320.019531 576.851562 2319.320312 575.660156 C 2318.621094 574.46875 2317.320312 573.75 2315.929688 573.78125 L 1896 574.160156 C 1894.621094 574.128906 1893.320312 574.851562 1892.621094 576.03125 C 1891.921875 577.21875 1891.921875 578.691406 1892.621094 579.878906 C 1893.320312 581.070312 1894.621094 581.789062 1896 581.761719 "/>
<path fill-rule="nonzero" fill="rgb(78.514099%, 21.556091%, 21.556091%)" fill-opacity="1" d="M 2272.410156 462.351562 C 2270.699219 462.308594 2269.019531 462.839844 2267.660156 463.871094 L 2224.808594 495.199219 L 2205.808594 474.601562 C 2203.980469 472.570312 2201.199219 471.679688 2198.539062 472.269531 C 2195.871094 472.859375 2193.730469 474.839844 2192.921875 477.449219 C 2192.121094 480.058594 2192.78125 482.898438 2194.660156 484.878906 L 2218.238281 510.449219 C 2220.859375 513.289062 2225.179688 513.710938 2228.289062 511.429688 L 2276.601562 476.109375 C 2279.269531 474.21875 2280.429688 470.839844 2279.46875 467.710938 C 2278.519531 464.589844 2275.671875 462.429688 2272.410156 462.351562 "/>
<path fill-rule="nonzero" fill="rgb(78.514099%, 21.556091%, 21.556091%)" fill-opacity="1" d="M 2146.109375 721.421875 C 2144.398438 721.378906 2142.730469 721.921875 2141.359375 722.949219 L 2098.511719 754.269531 L 2079.511719 733.671875 C 2077.679688 731.640625 2074.910156 730.75 2072.238281 731.339844 C 2069.570312 731.929688 2067.429688 733.910156 2066.628906 736.519531 C 2065.820312 739.128906 2066.488281 741.96875 2068.359375 743.960938 L 2091.949219 769.53125 C 2094.558594 772.359375 2098.878906 772.78125 2101.988281 770.511719 L 2150.308594 735.191406 C 2152.96875 733.300781 2154.128906 729.910156 2153.179688 726.789062 C 2152.21875 723.660156 2149.371094 721.5 2146.109375 721.421875 "/>
<path fill-rule="nonzero" fill="rgb(78.514099%, 21.556091%, 21.556091%)" fill-opacity="1" d="M 1503.921875 721.71875 C 1502.210938 721.679688 1500.539062 722.21875 1499.171875 723.238281 L 1456.320312 754.570312 L 1437.320312 733.96875 C 1435.488281 731.941406 1432.71875 731.050781 1430.050781 731.640625 C 1427.378906 732.230469 1425.238281 734.210938 1424.441406 736.820312 C 1423.628906 739.429688 1424.300781 742.269531 1426.171875 744.25 L 1449.761719 769.828125 C 1452.371094 772.660156 1456.691406 773.078125 1459.800781 770.800781 L 1508.121094 735.488281 C 1510.78125 733.589844 1511.941406 730.210938 1510.988281 727.089844 C 1510.03125 723.960938 1507.179688 721.800781 1503.921875 721.71875 "/>
<path fill-rule="nonzero" fill="rgb(52.929688%, 87.109375%, 80.46875%)" fill-opacity="1" d="M 765.292969 1815.691406 L 1097.609375 1652.417969 L 1521.351562 1901.933594 L 1189.03125 2065.207031 L 765.292969 1815.691406 "/>
<path fill-rule="nonzero" fill="rgb(94.921875%, 94.921875%, 94.921875%)" fill-opacity="1" d="M 1187.578125 2065.933594 C 1186.050781 2091.425781 1185.550781 2123.132812 1184.019531 2148.625 L 1506.371094 1991.777344 C 1507.898438 1966.285156 1509.789062 1933.746094 1511.320312 1908.253906 L 1187.578125 2065.933594 "/>
<path fill-rule="nonzero" fill="rgb(100%, 100%, 100%)" fill-opacity="1" d="M 1183.921875 2150.21875 L 760.214844 1900.171875 L 765.296875 1815.691406 L 1189.03125 2065.207031 L 1183.410156 2158.722656 L 1183.921875 2150.21875 "/>
<path fill-rule="nonzero" fill="rgb(83.59375%, 89.84375%, 100%)" fill-opacity="1" d="M 1452.988281 1923.660156 L 1399.121094 1949.757812 L 1391.460938 1979.050781 L 1424.410156 1953.4375 L 1444.980469 1955.257812 L 1452.988281 1923.660156 "/>
<path fill-rule="nonzero" fill="rgb(82.8125%, 37.255859%, 37.255859%)" fill-opacity="1" d="M 1045.03125 1612.882812 L 1370.988281 1792.558594 L 1375.101562 1771.046875 L 1448.371094 1780.328125 L 1455.308594 1839.027344 L 1071.480469 2020.460938 L 661.203125 1794.316406 L 654.269531 1735.617188 L 726.988281 1763.222656 L 1045.03125 1612.882812 "/>
<path fill-rule="nonzero" fill="rgb(87.109375%, 52.929688%, 52.929688%)" fill-opacity="1" d="M 1448.371094 1780.328125 L 1038.089844 1554.183594 L 654.269531 1735.617188 L 1064.550781 1961.761719 L 1448.371094 1780.328125 "/>
<path fill-rule="nonzero" fill="rgb(100%, 100%, 100%)" fill-opacity="1" d="M 654.269531 1735.617188 L 1064.550781 1961.761719 L 1070.78125 2011.902344 L 659.800781 1786.59375 L 654.269531 1735.617188 "/>
<path fill-rule="nonzero" fill="rgb(78.514099%, 66.992188%, 21.556091%)" fill-opacity="1" d="M 970.398438 1517.851562 L 738.832031 1628.425781 L 701.414062 1583.585938 L 622.976562 1601.308594 L 604.550781 1692.542969 L 1009.351562 1915.015625 L 1375.191406 1740.324219 L 1393.609375 1649.09375 L 1250.78125 1671.949219 L 970.398438 1517.851562 "/>
<path fill-rule="nonzero" fill="rgb(87.109375%, 80.46875%, 52.929688%)" fill-opacity="1" d="M 622.976562 1601.308594 L 988.820312 1426.621094 L 1393.609375 1649.09375 L 1027.769531 1823.78125 L 622.976562 1601.308594 "/>
<path fill-rule="nonzero" fill="rgb(94.921875%, 94.921875%, 94.921875%)" fill-opacity="1" d="M 1026.171875 1824.5625 C 1021.148438 1849.429688 1016.359375 1880.296875 1011.339844 1905.167969 L 1366 1737.203125 C 1371.019531 1712.332031 1377.351562 1680.589844 1382.371094 1655.71875 L 1026.171875 1824.5625 "/>
<path fill-rule="nonzero" fill="rgb(100%, 100%, 100%)" fill-opacity="1" d="M 1011.019531 1906.722656 L 606.335938 1683.730469 L 622.976562 1601.308594 L 1027.769531 1823.785156 L 1009.351562 1915.015625 L 1011.019531 1906.722656 "/>
<path fill-rule="nonzero" fill="rgb(8.616638%, 17.651367%, 31.37207%)" fill-opacity="1" d="M 1091.988281 1745.933594 L 881.644531 1849.277344 L 839.203125 1801.097656 L 765.292969 1815.691406 L 754.960938 1917.613281 L 1183.410156 2158.722656 L 1515.730469 1995.449219 L 1521.351562 1901.933594 L 1385.5 1918.761719 L 1091.988281 1745.933594 "/>
<path fill-rule="nonzero" fill="rgb(66.601562%, 80.076599%, 100%)" fill-opacity="1" d="M 765.292969 1815.691406 L 1097.609375 1652.417969 L 1521.351562 1901.933594 L 1189.03125 2065.207031 L 765.292969 1815.691406 "/>
<path fill-rule="nonzero" fill="rgb(94.921875%, 94.921875%, 94.921875%)" fill-opacity="1" d="M 1187.578125 2065.933594 C 1186.050781 2091.425781 1185.550781 2123.132812 1184.019531 2148.625 L 1506.371094 1991.777344 C 1507.898438 1966.285156 1509.789062 1933.746094 1511.320312 1908.253906 L 1187.578125 2065.933594 "/>
<path fill-rule="nonzero" fill="rgb(100%, 100%, 100%)" fill-opacity="1" d="M 1183.921875 2150.21875 L 754.835938 1909.78125 L 765.296875 1815.691406 L 1189.03125 2065.207031 L 1183.410156 2158.722656 L 1183.921875 2150.21875 "/>
<path fill-rule="nonzero" fill="rgb(68.554688%, 77.734375%, 91.40625%)" fill-opacity="1" d="M 1482.289062 1948.203125 L 1434.371094 1973.363281 L 1431.859375 2003.449219 L 1459.539062 1978.058594 L 1479.820312 1980.660156 L 1482.289062 1948.203125 "/>
<path fill-rule="nonzero" fill="rgb(8.616638%, 17.651367%, 31.37207%)" fill-opacity="1" d="M 1045.03125 1612.882812 L 1370.988281 1792.558594 L 1375.101562 1771.046875 L 1448.371094 1780.328125 L 1455.308594 1839.027344 L 1071.480469 2020.460938 L 661.203125 1794.316406 L 654.269531 1735.617188 L 726.988281 1763.222656 L 1045.03125 1612.882812 "/>
<path fill-rule="nonzero" fill="rgb(37.255859%, 55.271912%, 82.8125%)" fill-opacity="1" d="M 1448.371094 1780.328125 L 1038.089844 1554.183594 L 654.269531 1735.617188 L 1064.550781 1961.761719 L 1448.371094 1780.328125 "/>
<path fill-rule="nonzero" fill="rgb(100%, 100%, 100%)" fill-opacity="1" d="M 654.269531 1735.617188 L 1064.550781 1961.761719 L 1070.78125 2011.902344 L 659.800781 1786.59375 L 654.269531 1735.617188 "/>
<path fill-rule="nonzero" fill="rgb(92.576599%, 63.084412%, 30.979919%)" fill-opacity="1" d="M 970.398438 1517.851562 L 738.832031 1628.425781 L 701.414062 1583.585938 L 622.976562 1601.308594 L 604.550781 1692.542969 L 1009.351562 1915.015625 L 1375.191406 1740.324219 L 1393.609375 1649.09375 L 1250.78125 1671.949219 L 970.398438 1517.851562 "/>
<path fill-rule="nonzero" fill="rgb(95.701599%, 80.859375%, 36.863708%)" fill-opacity="1" d="M 622.976562 1601.308594 L 988.820312 1426.621094 L 1393.609375 1649.09375 L 1027.769531 1823.78125 L 622.976562 1601.308594 "/>
<path fill-rule="nonzero" fill="rgb(94.921875%, 94.921875%, 94.921875%)" fill-opacity="1" d="M 1026.171875 1824.5625 C 1021.148438 1849.429688 1016.359375 1880.296875 1011.339844 1905.167969 L 1366 1737.203125 C 1371.019531 1712.332031 1377.351562 1680.589844 1382.371094 1655.71875 L 1026.171875 1824.5625 "/>
<path fill-rule="nonzero" fill="rgb(100%, 100%, 100%)" fill-opacity="1" d="M 1011.019531 1906.722656 L 606.335938 1683.730469 L 622.976562 1601.308594 L 1027.769531 1823.785156 L 1009.351562 1915.015625 L 1011.019531 1906.722656 "/>
<path fill-rule="nonzero" fill="rgb(96.09375%, 83.201599%, 47.459412%)" fill-opacity="1" d="M 1346.550781 1697.710938 L 1293.578125 1724.472656 L 1286.921875 1753.855469 L 1318.988281 1727.839844 L 1339.621094 1729.398438 L 1346.550781 1697.710938 "/>
<path fill-rule="nonzero" fill="rgb(8.616638%, 17.651367%, 31.37207%)" fill-opacity="1" d="M 1000.238281 1941.300781 L 1039.191406 1962.101562 L 1043.648438 1990.085938 L 1015.96875 1963.417969 L 999.597656 1965.433594 L 1000.238281 1941.300781 "/>
<path fill-rule="nonzero" fill="rgb(62.693787%, 17.259216%, 17.259216%)" fill-opacity="1" d="M 719.652344 1143.230469 L 912.109375 1461.808594 L 926.421875 1445.238281 L 985.234375 1489.921875 L 961.890625 1544.214844 L 538.773438 1509.433594 L 296.535156 1108.441406 L 319.878906 1054.140625 L 369.054688 1114.410156 L 719.652344 1143.230469 "/>
<path fill-rule="nonzero" fill="rgb(82.8125%, 37.255859%, 37.255859%)" fill-opacity="1" d="M 985.234375 1489.921875 L 742.996094 1088.929688 L 319.878906 1054.140625 L 562.121094 1455.128906 L 985.234375 1489.921875 "/>
<path fill-rule="nonzero" fill="rgb(100%, 100%, 100%)" fill-opacity="1" d="M 319.878906 1054.140625 L 562.121094 1455.128906 L 542.4375 1501.664062 L 299.179688 1101.050781 L 319.878906 1054.140625 "/>
<path fill-rule="nonzero" fill="rgb(62.693787%, 17.259216%, 17.259216%)" fill-opacity="1" d="M 516.652344 1405.25 L 539.988281 1442.738281 L 529.859375 1469.210938 L 519.21875 1432.269531 L 504.03125 1425.828125 L 516.652344 1405.25 "/>
<g clip-path="url(#clip-4)">
<g clip-path="url(#clip-5)">
<path fill-rule="nonzero" fill="url(#linear-pattern-2)" d="M 3504.585938 1012.816406 L 2995.328125 1786.390625 L 2153.996094 1232.523438 L 2663.25 458.949219 Z M 3504.585938 1012.816406 "/>
</g>
</g>
<path fill-rule="nonzero" fill="rgb(93.75%, 73.242188%, 18.041992%)" fill-opacity="1" d="M 2418.671875 1057 C 2440.101562 1049.070312 2468.691406 1059.179688 2482.519531 1079.570312 C 2482.71875 1079.878906 2482.910156 1080.191406 2483.101562 1080.488281 L 2405.589844 1109.171875 C 2405.359375 1108.878906 2405.140625 1108.578125 2404.921875 1108.28125 C 2391.089844 1087.890625 2397.238281 1064.929688 2418.671875 1057 "/>
<path fill-rule="nonzero" fill="rgb(100%, 100%, 100%)" fill-opacity="1" d="M 2630.46875 1194.898438 L 3026.539062 1048.25 C 3027.941406 1047.71875 3029.640625 1047.820312 3031.011719 1048.53125 C 3032.378906 1049.230469 3033.199219 1050.429688 3033.148438 1051.660156 C 3033.109375 1052.890625 3032.210938 1053.96875 3030.789062 1054.480469 L 2634.71875 1201.128906 C 2633.328125 1201.671875 2631.621094 1201.570312 2630.238281 1200.871094 C 2628.871094 1200.160156 2628.050781 1198.960938 2628.101562 1197.730469 C 2628.140625 1196.488281 2629.039062 1195.421875 2630.460938 1194.910156 "/>
<path fill-rule="nonzero" fill="rgb(100%, 100%, 100%)" fill-opacity="1" d="M 2668.449219 1250.640625 L 3130.230469 1079.550781 C 3131.738281 1078.949219 3133.589844 1079.058594 3135.078125 1079.820312 C 3136.570312 1080.578125 3137.460938 1081.890625 3137.410156 1083.21875 C 3137.351562 1084.558594 3136.359375 1085.730469 3134.820312 1086.269531 L 2673.039062 1257.359375 C 2671.53125 1257.949219 2669.671875 1257.839844 2668.191406 1257.078125 C 2666.699219 1256.308594 2665.820312 1255.011719 2665.878906 1253.671875 C 2665.929688 1252.328125 2666.929688 1251.171875 2668.46875 1250.628906 "/>
<path fill-rule="nonzero" fill="rgb(100%, 100%, 100%)" fill-opacity="1" d="M 2590.558594 1141.601562 L 3052.339844 970.5 C 3053.851562 969.910156 3055.710938 970.011719 3057.191406 970.78125 C 3058.679688 971.539062 3059.570312 972.839844 3059.519531 974.179688 C 3059.460938 975.519531 3058.46875 976.679688 3056.929688 977.21875 L 2595.148438 1148.320312 C 2593.640625 1148.910156 2591.789062 1148.800781 2590.300781 1148.03125 C 2588.808594 1147.269531 2587.929688 1145.960938 2587.988281 1144.628906 C 2588.050781 1143.289062 2589.039062 1142.128906 2590.578125 1141.589844 "/>
<path fill-rule="nonzero" fill="rgb(91.40625%, 68.554688%, 68.554688%)" fill-opacity="1" d="M 3344.898438 606.371094 L 3300.839844 572.058594 L 3241.261719 648.558594 L 3285.308594 682.871094 L 3344.898438 606.371094 "/>
<path fill-rule="nonzero" fill="rgb(91.40625%, 68.554688%, 68.554688%)" fill-opacity="1" d="M 3285.320312 682.878906 L 3241.269531 648.570312 L 3181.679688 725.070312 L 3225.730469 759.378906 L 3285.320312 682.878906 "/>
<path fill-rule="nonzero" fill="rgb(91.40625%, 68.554688%, 68.554688%)" fill-opacity="1" d="M 3225.75 759.378906 L 3181.691406 725.078125 L 3122.101562 801.578125 L 3166.160156 835.878906 L 3225.75 759.378906 "/>
<path fill-rule="nonzero" fill="rgb(91.40625%, 68.554688%, 68.554688%)" fill-opacity="1" d="M 3166.171875 835.890625 L 3122.109375 801.589844 L 3062.519531 878.089844 L 3106.578125 912.390625 L 3166.171875 835.890625 "/>
<path fill-rule="nonzero" fill="rgb(91.40625%, 68.554688%, 68.554688%)" fill-opacity="1" d="M 3106.589844 912.398438 L 3062.539062 878.089844 L 3002.949219 954.589844 L 3047 988.898438 L 3106.589844 912.398438 "/>
<path fill-rule="nonzero" fill="rgb(91.40625%, 68.554688%, 68.554688%)" fill-opacity="1" d="M 3047.011719 988.910156 L 3002.960938 954.601562 L 2943.371094 1031.101562 L 2987.429688 1065.410156 L 3047.011719 988.910156 "/>
<path fill-rule="nonzero" fill="rgb(83.59375%, 89.84375%, 100%)" fill-opacity="1" d="M 2987.441406 1065.421875 L 2943.378906 1031.109375 L 2879.820312 1158.179688 Z M 2987.441406 1065.421875 "/>
<path fill-rule="nonzero" fill="rgb(52.929688%, 66.601562%, 87.109375%)" fill-opacity="1" d="M 2879.820312 1158.179688 L 2953.21875 1038.660156 L 2943.601562 1031.171875 Z M 2879.820312 1158.179688 "/>
<path fill-rule="nonzero" fill="rgb(66.601562%, 80.076599%, 100%)" fill-opacity="1" d="M 2879.820312 1158.179688 L 2953.21875 1038.660156 L 2975.191406 1056.539062 Z M 2879.820312 1158.179688 "/>
<path fill-rule="nonzero" fill="rgb(91.40625%, 68.554688%, 68.554688%)" fill-opacity="1" d="M 3373.859375 554.75 L 3343.789062 531.328125 C 3339.921875 528.320312 3324.210938 542.058594 3308.570312 562.140625 L 3305.449219 566.140625 C 3289.820312 586.230469 3280.339844 604.820312 3284.210938 607.839844 L 3314.289062 631.261719 C 3318.160156 634.269531 3333.871094 620.53125 3349.511719 600.449219 L 3352.628906 596.449219 C 3368.261719 576.359375 3377.738281 557.769531 3373.859375 554.75 "/>
<path fill-rule="nonzero" fill="rgb(8.616638%, 17.651367%, 31.37207%)" fill-opacity="1" d="M 2879.820312 1158.179688 L 2892.78125 1132.410156 L 2901.640625 1139.308594 Z M 2879.820312 1158.179688 "/>
<path fill-rule="nonzero" fill="rgb(82.8125%, 37.255859%, 37.255859%)" fill-opacity="1" d="M 2953.21875 1038.660156 L 2943.378906 1031.109375 L 3002.96875 954.609375 L 3012.761719 962.238281 L 2953.21875 1038.660156 "/>
<path fill-rule="nonzero" fill="rgb(87.109375%, 52.929688%, 52.929688%)" fill-opacity="1" d="M 2975.519531 1056.03125 L 2953.171875 1038.738281 L 3012.761719 962.238281 L 3035.070312 979.609375 L 2975.519531 1056.03125 "/>
<path fill-rule="nonzero" fill="rgb(82.8125%, 37.255859%, 37.255859%)" fill-opacity="1" d="M 3012.789062 962.148438 L 3002.960938 954.601562 L 3062.519531 878.078125 L 3072.308594 885.710938 L 3012.789062 962.148438 "/>
<path fill-rule="nonzero" fill="rgb(87.109375%, 52.929688%, 52.929688%)" fill-opacity="1" d="M 3035.089844 979.519531 L 3012.75 962.230469 L 3072.308594 885.710938 L 3094.628906 903.078125 L 3035.089844 979.519531 "/>
<path fill-rule="nonzero" fill="rgb(82.8125%, 37.255859%, 37.255859%)" fill-opacity="1" d="M 3072.371094 885.648438 L 3062.539062 878.089844 L 3122.101562 801.570312 L 3131.890625 809.199219 L 3072.371094 885.648438 "/>
<path fill-rule="nonzero" fill="rgb(87.109375%, 52.929688%, 52.929688%)" fill-opacity="1" d="M 3094.671875 903.011719 L 3072.328125 885.71875 L 3131.921875 809.21875 L 3154.230469 826.601562 L 3094.671875 903.011719 "/>
<path fill-rule="nonzero" fill="rgb(82.8125%, 37.255859%, 37.255859%)" fill-opacity="1" d="M 3131.949219 809.140625 L 3122.109375 801.589844 L 3181.699219 725.089844 L 3191.488281 732.710938 L 3131.949219 809.140625 "/>
<path fill-rule="nonzero" fill="rgb(87.109375%, 52.929688%, 52.929688%)" fill-opacity="1" d="M 3154.25 826.5 L 3131.910156 809.210938 L 3191.488281 732.710938 L 3213.808594 750.089844 L 3154.25 826.5 "/>
<path fill-rule="nonzero" fill="rgb(82.8125%, 37.255859%, 37.255859%)" fill-opacity="1" d="M 3191.519531 732.628906 L 3181.691406 725.078125 L 3241.28125 648.578125 L 3251.070312 656.199219 L 3191.519531 732.628906 "/>
<path fill-rule="nonzero" fill="rgb(87.109375%, 52.929688%, 52.929688%)" fill-opacity="1" d="M 3213.828125 750 L 3191.480469 732.699219 L 3251.070312 656.199219 L 3273.378906 673.578125 L 3213.828125 750 "/>
<path fill-rule="nonzero" fill="rgb(82.8125%, 37.255859%, 37.255859%)" fill-opacity="1" d="M 3346.589844 533.511719 L 3287 610.011719 L 3284.210938 607.839844 C 3280.339844 604.820312 3289.808594 586.21875 3305.449219 566.140625 L 3308.558594 562.140625 C 3324.199219 542.050781 3339.910156 528.308594 3343.789062 531.328125 L 3346.589844 533.511719 "/>
<path fill-rule="nonzero" fill="rgb(87.109375%, 52.929688%, 52.929688%)" fill-opacity="1" d="M 3273.429688 673.449219 L 3251.058594 656.191406 L 3346.511719 533.628906 L 3368.820312 551.011719 L 3273.429688 673.449219 "/>
<path fill-rule="nonzero" fill="rgb(82.8125%, 37.255859%, 37.255859%)" fill-opacity="1" d="M 3251.101562 656.121094 L 3241.269531 648.570312 L 3300.859375 572.070312 L 3310.648438 579.699219 L 3251.101562 656.121094 "/>
<path fill-rule="nonzero" fill="rgb(8.616638%, 17.651367%, 31.37207%)" fill-opacity="1" d="M 2879.820312 1158.179688 L 2892.78125 1132.410156 L 2894.789062 1134.449219 L 2879.820312 1158.179688 "/>
<path fill-rule="nonzero" fill="rgb(8.616638%, 17.651367%, 31.37207%)" fill-opacity="1" d="M 2879.730469 1158.109375 L 2894.789062 1134.449219 L 2899.191406 1137.660156 Z M 2879.730469 1158.109375 "/>
<path fill-rule="nonzero" fill="rgb(0%, 19.993591%, 50.193787%)" fill-opacity="1" d="M 2780.019531 1838.839844 C 2843.859375 1855.933594 2907.480469 1880.507812 2958.121094 1925.691406 C 2974.910156 1939.519531 2989.5 1957.515625 2993.859375 1980.429688 C 2996.941406 1993.238281 2996.621094 2007.054688 2993.101562 2019.898438 L 2980.269531 2079.289062 L 2980.261719 2079.261719 C 2977.191406 2093.714844 2970.148438 2107.265625 2959.421875 2117.226562 C 2933.140625 2143.703125 2896.429688 2151.484375 2862.738281 2154.628906 C 2761.121094 2165.214844 2660.589844 2140.164062 2567.761719 2101.488281 C 2523.148438 2080.976562 2478.558594 2053.308594 2452.828125 2007.695312 C 2445.570312 1991.476562 2444.570312 1971.78125 2449.398438 1953.898438 L 2462.710938 1891.535156 L 2462.941406 1891.589844 C 2467.21875 1874.378906 2476.859375 1858.6875 2491.46875 1849.144531 C 2527.28125 1821.328125 2572.480469 1818.804688 2614.109375 1816.664062 C 2665.878906 1815.554688 2717.070312 1823.789062 2767.25 1835.519531 C 2771.5 1836.597656 2775.761719 1837.703125 2780.019531 1838.839844 "/>
<path fill-rule="nonzero" fill="rgb(83.59375%, 89.84375%, 100%)" fill-opacity="1" d="M 2766.070312 1831.75 C 2831.328125 1848.242188 2897.300781 1871.839844 2949.199219 1917.535156 C 2965.328125 1930.652344 2979.359375 1947.691406 2983.609375 1969.351562 C 2989.578125 1993.449219 2982.640625 2021.261719 2964.21875 2038.101562 C 2939.140625 2063.023438 2904 2070.253906 2871.738281 2073.109375 C 2774.429688 2082.777344 2678.050781 2058.792969 2589 2021.957031 C 2546.210938 2002.441406 2503.398438 1976.164062 2478.609375 1933 C 2465.109375 1903.449219 2473.820312 1861.769531 2501.949219 1843.71875 C 2536.160156 1817.566406 2579.449219 1815.328125 2619.320312 1813.445312 C 2668.898438 1812.5625 2717.960938 1820.507812 2766.070312 1831.75 "/>
<path fill-rule="nonzero" fill="rgb(0%, 19.993591%, 50.193787%)" fill-opacity="1" d="M 2828.148438 1619.429688 C 2830.121094 1619.964844 2832.089844 1620.511719 2834.058594 1621.066406 C 2834.78125 1621.269531 2835.5 1621.476562 2836.21875 1621.683594 C 2837.5 1622.046875 2838.769531 1622.410156 2840.050781 1622.78125 C 2840.78125 1622.992188 2841.5 1623.210938 2842.230469 1623.421875 C 2843.5 1623.796875 2844.769531 1624.171875 2846.039062 1624.554688 C 2846.789062 1624.777344 2847.539062 1625.007812 2848.28125 1625.238281 C 2849.511719 1625.609375 2850.730469 1625.984375 2851.949219 1626.363281 C 2852.769531 1626.621094 2853.578125 1626.878906 2854.398438 1627.140625 C 2855.558594 1627.503906 2856.71875 1627.871094 2857.871094 1628.246094 C 2858.71875 1628.519531 2859.558594 1628.796875 2860.410156 1629.074219 C 2861.519531 1629.441406 2862.628906 1629.808594 2863.738281 1630.179688 C 2864.601562 1630.46875 2865.460938 1630.761719 2866.328125 1631.054688 C 2867.46875 1631.445312 2868.609375 1631.835938 2869.75 1632.234375 C 2870.570312 1632.523438 2871.398438 1632.8125 2872.21875 1633.105469 C 2873.320312 1633.492188 2874.398438 1633.882812 2875.488281 1634.277344 C 2876.371094 1634.59375 2877.238281 1634.914062 2878.121094 1635.234375 C 2879.261719 1635.652344 2880.390625 1636.078125 2881.53125 1636.507812 C 2882.308594 1636.800781 2883.101562 1637.097656 2883.878906 1637.398438 C 2885.050781 1637.847656 2886.210938 1638.300781 2887.378906 1638.757812 C 2888.171875 1639.070312 2888.960938 1639.378906 2889.761719 1639.695312 C 2890.941406 1640.167969 2892.128906 1640.652344 2893.308594 1641.136719 C 2894.019531 1641.425781 2894.738281 1641.714844 2895.449219 1642.011719 C 2896.699219 1642.53125 2897.960938 1643.066406 2899.210938 1643.597656 C 2899.898438 1643.894531 2900.601562 1644.1875 2901.300781 1644.488281 C 2902.46875 1644.996094 2903.628906 1645.515625 2904.800781 1646.03125 C 2905.550781 1646.363281 2906.300781 1646.691406 2907.039062 1647.027344 C 2908.359375 1647.617188 2909.660156 1648.226562 2910.96875 1648.832031 C 2911.539062 1649.101562 2912.121094 1649.359375 2912.699219 1649.628906 C 2914.589844 1650.519531 2916.46875 1651.421875 2918.351562 1652.34375 C 2920.21875 1653.265625 2922.089844 1654.203125 2923.949219 1655.15625 C 2924.480469 1655.425781 2925 1655.707031 2925.53125 1655.980469 C 2926.859375 1656.667969 2928.179688 1657.355469 2929.5 1658.0625 C 2930.148438 1658.410156 2930.800781 1658.765625 2931.441406 1659.117188 C 2932.628906 1659.761719 2933.808594 1660.402344 2934.988281 1661.058594 C 2935.710938 1661.460938 2936.421875 1661.871094 2937.140625 1662.277344 C 2938.25 1662.910156 2939.359375 1663.539062 2940.46875 1664.1875 C 2941.191406 1664.609375 2941.910156 1665.039062 2942.628906 1665.46875 C 2943.699219 1666.101562 2944.769531 1666.738281 2945.828125 1667.382812 C 2946.609375 1667.859375 2947.390625 1668.34375 2948.160156 1668.824219 C 2949.160156 1669.445312 2950.160156 1670.066406 2951.148438 1670.695312 C 2951.929688 1671.195312 2952.699219 1671.695312 2953.480469 1672.203125 C 2954.480469 1672.847656 2955.46875 1673.5 2956.460938 1674.15625 C 2957.238281 1674.675781 2958.011719 1675.199219 2958.789062 1675.726562 C 2959.75 1676.378906 2960.710938 1677.039062 2961.660156 1677.703125 C 2962.441406 1678.242188 2963.210938 1678.78125 2963.96875 1679.328125 C 2964.949219 1680.023438 2965.929688 1680.730469 2966.898438 1681.441406 C 2967.628906 1681.96875 2968.351562 1682.496094 2969.058594 1683.027344 C 2970.070312 1683.773438 2971.058594 1684.527344 2972.050781 1685.285156 C 2972.75 1685.820312 2973.460938 1686.355469 2974.148438 1686.898438 C 2975.128906 1687.660156 2976.101562 1688.433594 2977.070312 1689.210938 C 2977.78125 1689.773438 2978.488281 1690.335938 2979.191406 1690.90625 C 2980.171875 1691.707031 2981.140625 1692.523438 2982.121094 1693.34375 C 2982.839844 1693.945312 2983.558594 1694.542969 2984.28125 1695.152344 C 2984.53125 1695.371094 2984.78125 1695.589844 2985.039062 1695.8125 C 2986.398438 1696.988281 2987.761719 1698.179688 2989.109375 1699.386719 C 2989.269531 1699.535156 2989.441406 1699.683594 2989.601562 1699.832031 C 2991 1701.09375 2992.390625 1702.367188 2993.769531 1703.664062 C 2993.910156 1703.796875 2994.039062 1703.929688 2994.179688 1704.0625 C 2995.609375 1705.402344 2997.019531 1706.761719 2998.421875 1708.140625 C 3003.890625 1713.101562 3009.089844 1718.59375 3013.710938 1724.664062 C 3014.128906 1725.214844 3014.550781 1725.769531 3014.960938 1726.332031 C 3018.648438 1731.382812 3021.941406 1736.824219 3024.640625 1742.675781 C 3024.941406 1743.328125 3025.238281 1743.980469 3025.519531 1744.640625 C 3026.089844 1745.960938 3026.628906 1747.304688 3027.140625 1748.664062 C 3028.171875 1751.390625 3029.058594 1754.195312 3029.808594 1757.085938 C 3030 1757.808594 3030.179688 1758.535156 3030.351562 1759.269531 C 3030.351562 1759.269531 3030.351562 1759.269531 3030.351562 1759.273438 C 3030.519531 1760.003906 3030.679688 1760.742188 3030.828125 1761.488281 C 3031.140625 1762.976562 3031.398438 1764.484375 3031.628906 1766.015625 C 3031.710938 1766.425781 3031.78125 1766.859375 3031.839844 1767.3125 C 3031.871094 1767.488281 3031.890625 1767.679688 3031.910156 1767.859375 C 3031.941406 1768.152344 3031.980469 1768.445312 3032.011719 1768.753906 C 3032.03125 1768.996094 3032.050781 1769.253906 3032.058594 1769.503906 C 3032.078125 1769.769531 3032.109375 1770.03125 3032.121094 1770.308594 C 3032.140625 1770.613281 3032.148438 1770.929688 3032.160156 1771.246094 C 3032.171875 1771.488281 3032.179688 1771.726562 3032.191406 1771.972656 C 3032.199219 1772.367188 3032.199219 1772.777344 3032.210938 1773.191406 C 3032.210938 1773.355469 3032.210938 1773.515625 3032.210938 1773.679688 C 3032.210938 1774.226562 3032.210938 1774.792969 3032.199219 1775.371094 C 3032.160156 1777.738281 3032.011719 1780.402344 3031.789062 1783.246094 C 3031.761719 1783.59375 3031.738281 1783.929688 3031.710938 1784.28125 C 3031.601562 1785.609375 3031.46875 1786.984375 3031.328125 1788.402344 C 3031.308594 1788.601562 3031.289062 1788.800781 3031.269531 1789 C 3031.101562 1790.550781 3030.921875 1792.144531 3030.71875 1793.785156 C 3030.710938 1793.878906 3030.691406 1793.972656 3030.679688 1794.066406 C 3030.46875 1795.800781 3030.230469 1797.578125 3029.980469 1799.402344 L 3031.761719 1799.804688 L 2992.070312 1976.261719 L 2992.058594 1976.234375 C 2988.710938 1991.835938 2981.550781 2006.570312 2970.898438 2017.539062 C 2964.699219 2024.449219 2957.949219 2030.230469 2950.839844 2035.105469 C 2950.789062 2035.136719 2950.75 2035.167969 2950.710938 2035.195312 C 2949.941406 2035.71875 2949.171875 2036.226562 2948.398438 2036.726562 C 2948.269531 2036.8125 2948.128906 2036.902344 2948 2036.988281 C 2947.269531 2037.453125 2946.539062 2037.914062 2945.808594 2038.359375 C 2945.648438 2038.460938 2945.480469 2038.5625 2945.320312 2038.660156 C 2944.601562 2039.09375 2943.878906 2039.519531 2943.160156 2039.9375 C 2942.980469 2040.042969 2942.800781 2040.144531 2942.621094 2040.246094 C 2941.898438 2040.660156 2941.179688 2041.066406 2940.449219 2041.460938 C 2940.289062 2041.546875 2940.128906 2041.628906 2939.980469 2041.714844 C 2939.21875 2042.121094 2938.460938 2042.527344 2937.699219 2042.914062 C 2937.679688 2042.929688 2937.648438 2042.941406 2937.621094 2042.953125 C 2935.859375 2043.855469 2934.089844 2044.714844 2932.300781 2045.53125 C 2931.769531 2045.773438 2931.238281 2046.003906 2930.71875 2046.234375 C 2930.269531 2046.429688 2929.828125 2046.628906 2929.390625 2046.820312 C 2928.921875 2047.019531 2928.449219 2047.210938 2927.980469 2047.402344 C 2927.480469 2047.613281 2926.980469 2047.820312 2926.480469 2048.023438 C 2926.050781 2048.195312 2925.621094 2048.363281 2925.191406 2048.53125 C 2924.609375 2048.757812 2924.03125 2048.984375 2923.449219 2049.203125 C 2923.078125 2049.34375 2922.710938 2049.480469 2922.328125 2049.617188 C 2921.691406 2049.855469 2921.039062 2050.085938 2920.398438 2050.3125 C 2920.089844 2050.421875 2919.769531 2050.53125 2919.460938 2050.640625 C 2918.699219 2050.90625 2917.929688 2051.164062 2917.160156 2051.414062 C 2916.980469 2051.476562 2916.789062 2051.539062 2916.609375 2051.597656 C 2915.699219 2051.890625 2914.800781 2052.179688 2913.890625 2052.453125 C 2913.808594 2052.480469 2913.71875 2052.503906 2913.640625 2052.53125 C 2912.628906 2052.839844 2911.621094 2053.136719 2910.601562 2053.425781 C 2906.441406 2054.609375 2902.261719 2055.628906 2898.078125 2056.527344 C 2898.039062 2056.53125 2898 2056.539062 2897.96875 2056.546875 C 2896.730469 2056.8125 2895.5 2057.0625 2894.261719 2057.304688 C 2893.511719 2057.449219 2892.769531 2057.59375 2892.019531 2057.734375 C 2890.910156 2057.941406 2889.800781 2058.140625 2888.691406 2058.332031 C 2888.679688 2058.335938 2888.660156 2058.335938 2888.648438 2058.339844 C 2884.488281 2059.054688 2880.351562 2059.675781 2876.269531 2060.203125 C 2777.570312 2074.179688 2680.859375 2049.855469 2591.929688 2010.691406 C 2549.261719 1989.804688 2506.769531 1961.230469 2483.03125 1912.902344 C 2476.578125 1896.101562 2475.980469 1875.597656 2480.71875 1856.667969 L 2480.761719 1856.691406 C 2480.878906 1856.191406 2480.988281 1855.691406 2481.128906 1855.195312 L 2503.871094 1753.742188 L 2503.878906 1753.726562 C 2504.058594 1752.847656 2504.25 1751.964844 2504.429688 1751.082031 C 2504.710938 1749.753906 2504.988281 1748.421875 2505.28125 1747.085938 C 2505.578125 1745.683594 2505.890625 1744.28125 2506.199219 1742.878906 C 2506.199219 1742.871094 2506.210938 1742.867188 2506.210938 1742.859375 C 2506.21875 1742.820312 2506.230469 1742.785156 2506.230469 1742.746094 C 2507.03125 1739.15625 2507.878906 1735.578125 2508.75 1732.003906 C 2508.75 1732 2508.75 1731.996094 2508.75 1731.992188 L 2519.480469 1684.144531 L 2522.621094 1684.855469 C 2522.621094 1684.84375 2522.628906 1684.832031 2522.628906 1684.820312 C 2523.101562 1683.519531 2523.558594 1682.238281 2524.03125 1680.96875 C 2524.199219 1680.527344 2524.359375 1680.09375 2524.53125 1679.652344 C 2524.839844 1678.816406 2525.160156 1677.980469 2525.480469 1677.160156 C 2525.679688 1676.628906 2525.890625 1676.105469 2526.089844 1675.582031 C 2526.378906 1674.859375 2526.660156 1674.144531 2526.949219 1673.433594 C 2527.148438 1672.949219 2527.339844 1672.46875 2527.539062 1671.992188 C 2527.851562 1671.234375 2528.160156 1670.488281 2528.46875 1669.746094 C 2528.660156 1669.292969 2528.851562 1668.839844 2529.050781 1668.394531 C 2529.410156 1667.550781 2529.769531 1666.726562 2530.140625 1665.90625 C 2530.261719 1665.621094 2530.390625 1665.324219 2530.519531 1665.039062 C 2531.011719 1663.941406 2531.511719 1662.871094 2532.011719 1661.820312 C 2532.128906 1661.554688 2532.261719 1661.300781 2532.390625 1661.039062 C 2532.78125 1660.230469 2533.160156 1659.429688 2533.558594 1658.648438 C 2533.710938 1658.347656 2533.859375 1658.050781 2534.011719 1657.753906 C 2534.359375 1657.070312 2534.710938 1656.394531 2535.058594 1655.738281 C 2535.25 1655.390625 2535.429688 1655.050781 2535.621094 1654.710938 C 2535.949219 1654.097656 2536.28125 1653.503906 2536.609375 1652.914062 C 2536.800781 1652.589844 2536.980469 1652.261719 2537.171875 1651.945312 C 2537.519531 1651.335938 2537.878906 1650.746094 2538.230469 1650.167969 C 2538.390625 1649.914062 2538.539062 1649.648438 2538.699219 1649.402344 C 2539.210938 1648.59375 2539.710938 1647.8125 2540.21875 1647.0625 C 2540.300781 1646.9375 2540.390625 1646.824219 2540.480469 1646.699219 C 2540.898438 1646.078125 2541.328125 1645.476562 2541.761719 1644.902344 C 2541.910156 1644.691406 2542.070312 1644.492188 2542.230469 1644.289062 C 2542.589844 1643.816406 2542.949219 1643.355469 2543.308594 1642.921875 C 2543.601562 1642.5625 2543.890625 1642.207031 2544.191406 1641.875 C 2544.238281 1641.816406 2544.289062 1641.75 2544.351562 1641.691406 C 2544.351562 1641.6875 2544.351562 1641.6875 2544.359375 1641.683594 C 2544.75 1641.246094 2545.140625 1640.835938 2545.53125 1640.441406 C 2545.621094 1640.347656 2545.710938 1640.253906 2545.800781 1640.164062 C 2546.191406 1639.773438 2546.578125 1639.410156 2546.96875 1639.066406 C 2547.050781 1639.003906 2547.121094 1638.941406 2547.191406 1638.882812 C 2547.601562 1638.527344 2548.011719 1638.191406 2548.421875 1637.890625 C 2549.53125 1636.929688 2550.640625 1635.992188 2551.761719 1635.085938 C 2551.761719 1635.082031 2551.761719 1635.082031 2551.761719 1635.082031 C 2554.011719 1633.261719 2556.28125 1631.542969 2558.589844 1629.921875 C 2558.589844 1629.921875 2558.589844 1629.917969 2558.589844 1629.917969 C 2559.738281 1629.105469 2560.898438 1628.320312 2562.070312 1627.554688 C 2563.230469 1626.789062 2564.410156 1626.050781 2565.589844 1625.328125 C 2567.941406 1623.890625 2570.328125 1622.539062 2572.738281 1621.273438 C 2577.550781 1618.738281 2582.460938 1616.535156 2587.429688 1614.609375 C 2589.921875 1613.644531 2592.421875 1612.753906 2594.941406 1611.921875 C 2596.199219 1611.507812 2597.460938 1611.109375 2598.730469 1610.722656 C 2599.988281 1610.339844 2601.261719 1609.96875 2602.53125 1609.613281 C 2605.078125 1608.90625 2607.628906 1608.253906 2610.191406 1607.648438 C 2611.480469 1607.347656 2612.761719 1607.058594 2614.039062 1606.78125 C 2615.328125 1606.503906 2616.609375 1606.238281 2617.898438 1605.984375 C 2620.480469 1605.476562 2623.058594 1605.011719 2625.640625 1604.585938 C 2626.941406 1604.371094 2628.230469 1604.167969 2629.519531 1603.972656 C 2630.808594 1603.777344 2632.109375 1603.589844 2633.398438 1603.410156 C 2642.449219 1602.152344 2651.5 1601.277344 2660.421875 1600.507812 C 2662.960938 1600.285156 2665.5 1600.074219 2668.019531 1599.863281 C 2669.589844 1599.785156 2671.160156 1599.714844 2672.730469 1599.65625 C 2674.289062 1599.597656 2675.859375 1599.546875 2677.421875 1599.507812 C 2678.980469 1599.464844 2680.550781 1599.433594 2682.109375 1599.414062 C 2683.671875 1599.390625 2685.230469 1599.378906 2686.789062 1599.375 C 2686.800781 1599.375 2686.789062 1599.375 2686.789062 1599.375 C 2688.359375 1599.371094 2689.921875 1599.378906 2691.480469 1599.394531 C 2693.039062 1599.40625 2694.589844 1599.429688 2696.148438 1599.460938 C 2697.710938 1599.492188 2699.269531 1599.535156 2700.820312 1599.585938 C 2702.378906 1599.632812 2703.941406 1599.691406 2705.488281 1599.757812 C 2707.050781 1599.824219 2708.601562 1599.898438 2710.148438 1599.980469 C 2711.710938 1600.0625 2713.261719 1600.152344 2714.808594 1600.253906 C 2716.359375 1600.351562 2717.910156 1600.457031 2719.460938 1600.570312 C 2721.011719 1600.683594 2722.558594 1600.808594 2724.109375 1600.9375 C 2725.648438 1601.066406 2727.199219 1601.199219 2728.75 1601.34375 C 2730.289062 1601.488281 2731.839844 1601.640625 2733.378906 1601.800781 C 2736.46875 1602.117188 2739.550781 1602.460938 2742.640625 1602.835938 C 2744.179688 1603.019531 2745.71875 1603.214844 2747.25 1603.414062 C 2748.789062 1603.613281 2750.328125 1603.820312 2751.871094 1604.03125 C 2758.019531 1604.882812 2764.148438 1605.835938 2770.269531 1606.878906 C 2773.320312 1607.398438 2776.378906 1607.941406 2779.429688 1608.507812 C 2782.480469 1609.070312 2785.53125 1609.65625 2788.570312 1610.261719 C 2797.699219 1612.074219 2806.789062 1614.0625 2815.851562 1616.1875 C 2819.941406 1617.234375 2824.039062 1618.3125 2828.128906 1619.425781 "/>
<path fill-rule="nonzero" fill="rgb(0%, 13.330078%, 33.325195%)" fill-opacity="1" d="M 2840.679688 1467.289062 L 3194.46875 1812.1875 L 3226.761719 1813.535156 L 3221.101562 1838.140625 L 2716.859375 2005.460938 L 2336.441406 1634.601562 L 2342.101562 1609.996094 L 2368.570312 1623.941406 L 2840.679688 1467.289062 "/>
<path fill-rule="nonzero" fill="rgb(0%, 19.993591%, 50.193787%)" fill-opacity="1" d="M 2846.339844 1442.679688 L 2342.101562 1609.996094 L 2722.519531 1980.855469 L 3226.761719 1813.535156 L 2846.339844 1442.679688 "/>
<path fill-rule="nonzero" fill="rgb(93.75%, 73.242188%, 18.041992%)" fill-opacity="1" d="M 2761.871094 1706.574219 C 2760.460938 1712.671875 2769.429688 1719.933594 2781.890625 1722.800781 C 2794.351562 1725.667969 2805.589844 1723.054688 2807 1716.960938 C 2807.671875 1714.03125 2805.941406 1710.679688 2802.179688 1707.636719 C 2798.429688 1704.59375 2792.960938 1702.109375 2786.96875 1700.730469 C 2780.988281 1699.355469 2774.980469 1699.195312 2770.269531 1700.292969 C 2765.558594 1701.386719 2762.539062 1703.648438 2761.871094 1706.574219 "/>
<path fill-rule="nonzero" fill="rgb(93.75%, 73.242188%, 18.041992%)" fill-opacity="1" d="M 2786.351562 1709.296875 C 2787.648438 1708.574219 2789.199219 1708.464844 2790.589844 1708.996094 C 2898.148438 1748.195312 3005.621094 1787.335938 3059.128906 1811.296875 C 3085.878906 1823.273438 3099.238281 1831.175781 3106.230469 1839.390625 C 3109.71875 1843.496094 3111.441406 1847.957031 3111.71875 1852.183594 C 3112 1856.410156 3111.089844 1860.195312 3110.230469 1863.964844 C 3106.75 1879.054688 3101.460938 1899.855469 3096.078125 1921 C 3095.679688 1922.785156 3094.328125 1924.207031 3092.578125 1924.71875 C 3090.820312 1925.226562 3088.921875 1924.746094 3087.621094 1923.457031 C 3086.320312 1922.167969 3085.820312 1920.277344 3086.320312 1918.515625 C 3091.691406 1897.367188 3096.980469 1876.585938 3100.398438 1861.703125 C 3101.261719 1857.984375 3101.808594 1855.121094 3101.660156 1852.855469 C 3101.511719 1850.585938 3100.910156 1848.703125 3098.539062 1845.921875 C 3093.808594 1840.351562 3081.328125 1832.28125 3055 1820.492188 C 3002.351562 1796.921875 2894.699219 1757.660156 2787.140625 1718.464844 C 2785.261719 1717.808594 2783.941406 1716.113281 2783.769531 1714.136719 C 2783.601562 1712.15625 2784.609375 1710.261719 2786.351562 1709.296875 "/>
<path fill-rule="nonzero" fill="rgb(93.75%, 73.242188%, 18.041992%)" fill-opacity="1" d="M 3068.480469 1930.796875 C 3066.480469 1939.492188 3073.46875 1948.523438 3084.101562 1950.96875 C 3089.199219 1952.144531 3094.480469 1951.609375 3098.769531 1949.488281 C 3103.058594 1947.367188 3106 1943.828125 3106.96875 1939.652344 C 3107.929688 1935.476562 3106.820312 1931.003906 3103.890625 1927.222656 C 3100.960938 1923.4375 3096.449219 1920.652344 3091.351562 1919.480469 C 3086.238281 1918.304688 3080.96875 1918.839844 3076.679688 1920.960938 C 3072.390625 1923.082031 3069.441406 1926.621094 3068.480469 1930.796875 "/>
<path fill-rule="nonzero" fill="rgb(93.75%, 73.242188%, 18.041992%)" fill-opacity="1" d="M 3096.898438 1968.296875 C 3100.238281 1990.535156 3101.210938 2030.324219 3093.480469 2051.855469 C 3085.75 2073.382812 3069.308594 2076.648438 3056.769531 2073.640625 C 3044.21875 2070.632812 3035.570312 2061.351562 3035.859375 2044.039062 C 3036.148438 2026.726562 3045.390625 2001.378906 3054.589844 1982.148438 C 3063.800781 1962.921875 3072.980469 1949.808594 3080.421875 1945.59375 C 3087.859375 1941.378906 3093.558594 1946.0625 3096.898438 1968.296875 "/>
<path fill-rule="nonzero" fill="rgb(96.09375%, 83.201599%, 47.459412%)" fill-opacity="1" d="M 2765.511719 386.089844 L 2881.050781 386.089844 C 2884.089844 386.089844 2886.53125 387.988281 2886.53125 390.351562 C 2886.53125 390.351562 2856.988281 434.878906 2857.621094 458.921875 C 2858.179688 480.320312 2788.351562 481.648438 2788.941406 458.921875 C 2789.539062 436.199219 2760.03125 390.351562 2760.03125 390.351562 C 2760.03125 390.351562 2762.46875 386.089844 2765.511719 386.089844 "/>
<path fill-rule="nonzero" fill="rgb(93.75%, 73.242188%, 18.041992%)" fill-opacity="1" d="M 2886.53125 470.699219 C 2886.53125 509.28125 2858.191406 534.371094 2823.230469 534.371094 C 2788.269531 534.371094 2759.929688 509.28125 2759.929688 470.699219 C 2759.929688 432.121094 2788.269531 436.988281 2823.230469 436.988281 C 2858.191406 436.988281 2886.53125 432.121094 2886.53125 470.699219 "/>
<path fill-rule="nonzero" fill="rgb(93.75%, 73.242188%, 18.041992%)" fill-opacity="1" d="M 2928.101562 309 C 2928.101562 336.160156 2916.980469 362.210938 2897.191406 381.421875 C 2877.390625 400.621094 2850.539062 411.421875 2822.539062 411.421875 C 2764.238281 411.421875 2716.980469 365.558594 2716.980469 309 C 2716.980469 252.429688 2764.238281 206.578125 2822.539062 206.578125 C 2850.539062 206.578125 2877.390625 217.371094 2897.191406 236.570312 C 2916.980469 255.78125 2928.101562 281.828125 2928.101562 309 "/>
<path fill-rule="nonzero" fill="rgb(100%, 100%, 100%)" fill-opacity="1" d="M 2806.660156 412.121094 C 2805.089844 412.121094 2805.289062 391.800781 2803.421875 362.789062 C 2802.730469 352.5 2802.171875 339.648438 2798.628906 328.589844 C 2798.460938 328.058594 2798.28125 327.539062 2798.101562 327.019531 C 2795.808594 321.351562 2793.679688 315.769531 2789.449219 314.660156 C 2788.910156 314.671875 2788.21875 314.398438 2788.769531 314.410156 C 2788.398438 314.25 2788.808594 315.308594 2788.949219 316.601562 C 2789.648438 319.03125 2791.339844 321.410156 2792.980469 323.761719 C 2795.558594 327.410156 2798.5 330.890625 2801.128906 333.960938 C 2814.519531 349.53125 2824.070312 358.929688 2823.171875 359.828125 C 2822.800781 360.199219 2812.160156 351.980469 2797.859375 336.910156 C 2795.03125 333.929688 2791.890625 330.480469 2789 326.691406 C 2787.210938 324.378906 2785.210938 321.621094 2784.019531 318.199219 C 2783.179688 316.480469 2782.980469 313.828125 2784.640625 311.121094 C 2786.75 309.101562 2789.289062 308.730469 2791.199219 309.601562 C 2798.03125 312.300781 2801.480469 319.019531 2803.300781 325.21875 C 2803.488281 325.78125 2803.679688 326.359375 2803.859375 326.929688 C 2807.679688 339.070312 2808.078125 352.199219 2808.410156 362.539062 C 2809.429688 391.859375 2807.308594 412.121094 2806.660156 412.121094 "/>
<path fill-rule="nonzero" fill="rgb(100%, 100%, 100%)" fill-opacity="1" d="M 2838.421875 412.121094 C 2839.988281 412.121094 2839.789062 391.800781 2841.660156 362.789062 C 2842.351562 352.5 2842.910156 339.648438 2846.449219 328.589844 C 2846.621094 328.058594 2846.800781 327.539062 2846.980469 327.019531 C 2849.269531 321.351562 2851.398438 315.769531 2855.628906 314.660156 C 2856.179688 314.671875 2856.859375 314.398438 2856.308594 314.410156 C 2856.679688 314.25 2856.269531 315.308594 2856.140625 316.601562 C 2855.429688 319.03125 2853.738281 321.410156 2852.109375 323.761719 C 2849.519531 327.410156 2846.589844 330.890625 2843.949219 333.960938 C 2830.558594 349.53125 2821.011719 358.929688 2821.910156 359.828125 C 2822.28125 360.199219 2832.921875 351.980469 2847.21875 336.910156 C 2850.050781 333.929688 2853.191406 330.480469 2856.078125 326.691406 C 2857.871094 324.378906 2859.871094 321.621094 2861.058594 318.199219 C 2861.910156 316.480469 2862.101562 313.828125 2860.441406 311.121094 C 2858.339844 309.101562 2855.789062 308.730469 2853.890625 309.601562 C 2847.050781 312.300781 2843.601562 319.019531 2841.789062 325.21875 C 2841.589844 325.78125 2841.398438 326.359375 2841.21875 326.929688 C 2837.398438 339.070312 2837 352.199219 2836.671875 362.539062 C 2835.648438 391.859375 2837.769531 412.121094 2838.421875 412.121094 "/>
</svg>
